<svg width="18" height="16" viewBox="0 0 18 16" fill="none" xmlns="http://www.w3.org/2000/svg">
<path d="M15.3777 8C15.3777 11.866 12.1591 15 8.18884 15C4.21855 15 1 11.866 1 8C1 4.13401 4.21855 1 8.18884 1C10.8497 1 13.173 2.40769 14.4159 4.5M13.4056 8.76818L15.2028 7.01818L17 8.76818M10.8821 9.90877L8.18697 9.03377V5.375" stroke="#595959" stroke-width="1.5" stroke-linecap="round" stroke-linejoin="round"/>
<path d="M15.3777 8C15.3777 11.866 12.1591 15 8.18884 15C4.21855 15 1 11.866 1 8C1 4.13401 4.21855 1 8.18884 1C10.8497 1 13.173 2.40769 14.4159 4.5M13.4056 8.76818L15.2028 7.01818L17 8.76818M10.8821 9.90877L8.18697 9.03377V5.375" stroke="url(#paint0_linear_6918_8666)" stroke-width="1.5" stroke-linecap="round" stroke-linejoin="round"/>
<defs>
<linearGradient id="paint0_linear_6918_8666" x1="9" y1="1" x2="9" y2="15" gradientUnits="userSpaceOnUse">
<stop stop-color="#00BC70"/>
<stop offset="0.79909" stop-color="#06C175"/>
<stop offset="1" stop-color="#20D48B"/>
</linearGradient>
</defs>
</svg>
