<svg width="28" height="28" viewBox="0 0 28 28" fill="none" xmlns="http://www.w3.org/2000/svg">
<g id="bell-01">
<path id="Icon" d="M4.78967 19.3228L4.16718 18.9045H4.16718L4.78967 19.3228ZM6.14648 14.9742L5.39648 14.9661V14.9742H6.14648ZM6.17496 12.345L6.92496 12.3531V12.345H6.17496ZM23.2173 19.3439L23.8477 18.9377L23.8477 18.9377L23.2173 19.3439ZM21.9115 14.9742L21.1615 14.9656V14.9742H21.9115ZM21.94 12.4753L22.69 12.4838V12.4753H21.94ZM10.8887 23.75C10.4745 23.75 10.1387 24.0858 10.1387 24.5C10.1387 24.9142 10.4745 25.25 10.8887 25.25V23.75ZM17.1109 25.25C17.5252 25.25 17.8609 24.9142 17.8609 24.5C17.8609 24.0858 17.5252 23.75 17.1109 23.75V25.25ZM5.41217 19.7412C6.16293 18.624 6.89648 16.9739 6.89648 14.9742H5.39648C5.39648 16.6035 4.79725 17.9669 4.16718 18.9045L5.41217 19.7412ZM6.89644 14.9823L6.92492 12.3531L5.425 12.3368L5.39653 14.9661L6.89644 14.9823ZM23.8477 18.9377C23.2433 17.9999 22.6615 16.624 22.6615 14.9742H21.1615C21.1615 16.9783 21.8665 18.6325 22.5868 19.7502L23.8477 18.9377ZM22.6614 14.9827L22.6899 12.4838L21.19 12.4667L21.1615 14.9656L22.6614 14.9827ZM22.69 12.4753C22.69 7.19317 18.883 2.75 13.9998 2.75V4.25C17.8871 4.25 21.19 7.84355 21.19 12.4753H22.69ZM22.7421 21.3125C23.4306 21.3125 23.8231 20.7767 23.971 20.384C24.1253 19.9742 24.1513 19.4087 23.8477 18.9377L22.5868 19.7502C22.5749 19.7318 22.5815 19.7307 22.5829 19.7594C22.5844 19.788 22.5791 19.8238 22.5672 19.8553C22.5545 19.889 22.5455 19.8897 22.5637 19.8735C22.5744 19.864 22.5952 19.8484 22.6277 19.835C22.6615 19.8211 22.701 19.8125 22.7421 19.8125V21.3125ZM6.92496 12.345C6.92496 7.78522 10.1762 4.25 13.9998 4.25V2.75C9.18033 2.75 5.42496 7.13483 5.42496 12.345H6.92496ZM5.25874 19.8125C5.30079 19.8125 5.34109 19.8214 5.37528 19.8357C5.40816 19.8495 5.42891 19.8655 5.4391 19.8747C5.4563 19.8903 5.44594 19.8877 5.43266 19.8514C5.42018 19.8172 5.41503 19.7791 5.41686 19.7492C5.41871 19.7192 5.42559 19.7212 5.41217 19.7412L4.16718 18.9045C3.84954 19.3772 3.87264 19.9524 4.02369 20.366C4.16796 20.761 4.55948 21.3125 5.25874 21.3125V19.8125ZM22.7421 19.8125H5.25874V21.3125H22.7421V19.8125ZM10.8887 25.25H17.1109V23.75H10.8887V25.25Z" fill="black"/>
</g>
</svg>
