<svg width="20" height="22" viewBox="0 0 20 22" fill="none" xmlns="http://www.w3.org/2000/svg">
<path d="M9.52015 5.23999V8.12C9.52015 8.65019 9.94996 9.08 10.4802 9.08H13.3602M15.2802 1.39999H8.55993C7.49955 1.39999 6.63993 2.2596 6.63993 3.31998V5.23999M15.2802 1.39999H15.8157C16.086 1.39999 16.3434 1.51386 16.5296 1.70982C16.8095 2.0043 17.2529 2.45771 17.6802 2.83999C18.015 3.13961 18.5411 3.67731 18.8561 4.0041C19.0265 4.18082 19.1202 4.41679 19.1201 4.66226L19.1201 5.23999M15.2802 1.39999V4.27999C15.2802 4.81019 15.71 5.23999 16.2402 5.23999H19.1201M19.1201 5.23999L19.1199 14.84C19.1199 15.9004 18.2603 16.76 17.1999 16.76H13.3599M11.9202 6.67999C11.4929 6.29771 11.0495 5.8443 10.7696 5.54982C10.5834 5.35386 10.326 5.23999 10.0557 5.23999H2.79993C1.73954 5.23999 0.879933 6.0996 0.879926 7.15998L0.879852 18.6799C0.879845 19.7403 1.73946 20.6 2.79984 20.6L11.4399 20.6C12.5003 20.6 13.3599 19.7404 13.3599 18.68L13.3601 8.50226C13.3602 8.25679 13.2665 8.02082 13.0961 7.8441C12.7811 7.51731 12.255 6.97961 11.9202 6.67999Z" stroke="#007143" stroke-width="1.5" stroke-linecap="round" stroke-linejoin="round"/>
</svg>
