<svg width="18" height="18" viewBox="0 0 18 18" fill="none" xmlns="http://www.w3.org/2000/svg">
<path d="M9.7259 4.27161C10.7258 4.43919 11.6341 4.91146 12.3592 5.6351C13.0843 6.35873 13.5538 7.26518 13.7255 8.26304M9.87857 1C11.657 1.30088 13.279 2.14259 14.5689 3.42609C15.8589 4.7134 16.6985 6.33206 17 8.10688M15.6108 15.1681C15.6108 15.1681 14.6452 16.1164 14.4086 16.3944C14.0232 16.8058 13.569 17 12.9737 17C12.9164 17 12.8553 17 12.7981 16.9962C11.6646 16.9238 10.6113 16.482 9.82129 16.105C7.6612 15.0614 5.76445 13.5799 4.18827 11.7022C2.88687 10.1369 2.01673 8.6896 1.44045 7.13568C1.08552 6.18733 0.955763 5.44846 1.01301 4.75148C1.05117 4.30588 1.22291 3.93644 1.53967 3.62033L2.84107 2.32159C3.02808 2.14639 3.22653 2.05118 3.42117 2.05118C3.6616 2.05118 3.85624 2.1959 3.97836 2.31778C3.98218 2.32159 3.986 2.3254 3.98981 2.32921C4.22261 2.5463 4.44397 2.771 4.67677 3.01095C4.79508 3.13282 4.9172 3.2547 5.03933 3.38038L6.08121 4.42014C6.48575 4.82385 6.48575 5.19709 6.08121 5.60081C5.97053 5.71126 5.86367 5.82171 5.753 5.92835C5.43242 6.25589 5.68425 6.00457 5.35222 6.30164C5.34459 6.30926 5.33696 6.31307 5.33314 6.32068C5.00493 6.64823 5.06599 6.96815 5.13469 7.18524C5.1385 7.19667 5.14232 7.20809 5.14614 7.21952C5.4171 7.8746 5.79874 8.49159 6.37884 9.22666L6.38265 9.23047C7.43598 10.5254 8.54656 11.5347 9.77163 12.3078C9.9281 12.4069 10.0884 12.4868 10.241 12.563C10.3784 12.6316 10.5082 12.6963 10.6189 12.7649C10.6341 12.7725 10.6494 12.7839 10.6647 12.7915C10.7944 12.8563 10.9166 12.8867 11.0425 12.8867C11.3593 12.8867 11.5577 12.6887 11.6226 12.6239L12.3707 11.8774C12.5004 11.7479 12.7065 11.5918 12.9469 11.5918C13.1836 11.5918 13.3782 11.7403 13.4965 11.8698C13.5003 11.8736 13.5003 11.8736 13.5041 11.8774L15.607 13.976C16.0001 14.3644 15.6108 15.1681 15.6108 15.1681Z" stroke="white" stroke-width="1.5" stroke-linecap="round" stroke-linejoin="round"/>
</svg>
