<svg width="21" height="21" viewBox="0 0 21 21" fill="none" xmlns="http://www.w3.org/2000/svg">
<path d="M19.6969 7.0791L16.8219 4.2041M16.8219 4.2041L13.9469 1.3291M16.8219 4.2041L13.9469 7.0791M16.8219 4.2041L19.6969 1.3291M18.0993 17.5634C18.0993 17.5634 16.9889 18.654 16.7168 18.9737C16.2735 19.4468 15.7512 19.6701 15.0666 19.6701C15.0007 19.6701 14.9305 19.6701 14.8647 19.6658C13.5612 19.5825 12.3499 19.0745 11.4414 18.6409C8.95726 17.4408 6.77599 15.737 4.96338 13.5777C3.46677 11.7775 2.46611 10.1132 1.80339 8.32617C1.39522 7.23558 1.246 6.38587 1.31184 5.58435C1.35572 5.0719 1.55322 4.64705 1.9175 4.28352L3.41411 2.78997C3.62916 2.58849 3.85738 2.47899 4.08122 2.47899C4.35772 2.47899 4.58155 2.64543 4.72199 2.78559C4.72638 2.78997 4.73077 2.79435 4.73516 2.79873C5.00288 3.04838 5.25744 3.3068 5.52516 3.58273C5.66121 3.72289 5.80166 3.86305 5.9421 4.00758L7.14026 5.2033C7.60549 5.66757 7.60549 6.0968 7.14026 6.56107C7.01299 6.68809 6.8901 6.8151 6.76282 6.93774C6.39415 7.31441 6.68376 7.0254 6.30193 7.36703C6.29315 7.37579 6.28437 7.38017 6.27999 7.38893C5.90254 7.7656 5.97276 8.13351 6.05176 8.38317C6.05615 8.39631 6.06054 8.40945 6.06493 8.42259C6.37654 9.17593 6.81543 9.88547 7.48254 10.7308L7.48693 10.7352C8.69826 12.2243 9.97542 13.385 11.3842 14.2741C11.5642 14.388 11.7485 14.48 11.9241 14.5676C12.0821 14.6464 12.2313 14.7209 12.3586 14.7997C12.3761 14.8085 12.3937 14.8216 12.4112 14.8304C12.5605 14.9048 12.7009 14.9399 12.8457 14.9399C13.21 14.9399 13.4382 14.7121 13.5129 14.6377L14.3731 13.7792C14.5224 13.6302 14.7594 13.4507 15.0359 13.4507C15.308 13.4507 15.5318 13.6215 15.6679 13.7704C15.6722 13.7748 15.6722 13.7748 15.6766 13.7792L18.0949 16.1925C18.547 16.6392 18.0993 17.5634 18.0993 17.5634Z" stroke="#29339B" stroke-width="1.44" stroke-linecap="round" stroke-linejoin="round"/>
</svg>
