<svg width="8" height="8" viewBox="0 0 8 8" fill="none" xmlns="http://www.w3.org/2000/svg">
<g id="component">
<g id="Icon">
<path d="M3.79988 1.08289C3.9104 0.972368 4.0896 0.972369 4.20012 1.08289L5.00742 1.89019C5.11795 2.00072 5.11795 2.17992 5.00742 2.29044L4.20012 3.09774C4.0896 3.20827 3.9104 3.20827 3.79988 3.09774L2.99258 2.29044C2.88205 2.17992 2.88205 2.00072 2.99258 1.89019L3.79988 1.08289Z" fill="black"/>
<path d="M5.70956 2.99258C5.82008 2.88205 5.99928 2.88205 6.10981 2.99258L6.91711 3.79988C7.02763 3.9104 7.02763 4.0896 6.91711 4.20012L6.10981 5.00742C5.99928 5.11795 5.82008 5.11795 5.70956 5.00742L4.90226 4.20012C4.79173 4.0896 4.79173 3.9104 4.90226 3.79988L5.70956 2.99258Z" fill="black"/>
<path d="M1.89019 2.99258C2.00072 2.88205 2.17992 2.88205 2.29044 2.99258L3.09774 3.79988C3.20827 3.9104 3.20827 4.0896 3.09774 4.20012L2.29044 5.00742C2.17992 5.11795 2.00072 5.11795 1.89019 5.00742L1.08289 4.20012C0.972369 4.0896 0.972369 3.9104 1.08289 3.79988L1.89019 2.99258Z" fill="black"/>
<path d="M3.79988 4.90226C3.9104 4.79173 4.0896 4.79173 4.20012 4.90226L5.00742 5.70956C5.11795 5.82008 5.11795 5.99928 5.00742 6.10981L4.20012 6.91711C4.0896 7.02763 3.9104 7.02763 3.79988 6.91711L2.99258 6.10981C2.88205 5.99928 2.88205 5.82008 2.99258 5.70956L3.79988 4.90226Z" fill="black"/>
</g>
</g>
</svg>
