<svg width="22" height="22" viewBox="0 0 22 22" fill="none" xmlns="http://www.w3.org/2000/svg">
<path d="M5.24039 11C5.24039 12.0604 4.38078 12.92 3.32039 12.92C2.26 12.92 1.40039 12.0604 1.40039 11C1.40039 9.93961 2.26 9.07999 3.32039 9.07999C4.38078 9.07999 5.24039 9.93961 5.24039 11ZM5.24039 11H16.7604M16.7604 11C16.7604 12.0604 17.62 12.92 18.6804 12.92C19.7408 12.92 20.6004 12.0604 20.6004 11C20.6004 9.93961 19.7408 9.07999 18.6804 9.07999C17.62 9.07999 16.7604 9.93961 16.7604 11ZM16.7604 3.31999C16.7604 4.38038 17.62 5.23999 18.6804 5.23999C19.7408 5.23999 20.6004 4.38038 20.6004 3.31999C20.6004 2.25961 19.7408 1.39999 18.6804 1.39999C17.62 1.39999 16.7604 2.25961 16.7604 3.31999ZM16.7604 3.31999H11.2404C10.7102 3.31999 10.2804 3.7498 10.2804 4.27999V17.72C10.2804 18.2502 10.7102 18.68 11.2404 18.68H16.7604M16.7604 18.68C16.7604 19.7404 17.62 20.6 18.6804 20.6C19.7408 20.6 20.6004 19.7404 20.6004 18.68C20.6004 17.6196 19.7408 16.76 18.6804 16.76C17.62 16.76 16.7604 17.6196 16.7604 18.68Z" stroke="#007143" stroke-width="1.5" stroke-linecap="round"/>
</svg>
