<svg width="306" height="212" viewBox="0 0 306 212" fill="none" xmlns="http://www.w3.org/2000/svg">
<circle cx="151.634" cy="115.562" r="95.8982" fill="#F1F3FF"/>
<circle cx="61.7461" cy="50.8105" r="6.01071" fill="#F1F3FF"/>
<circle cx="219.937" cy="11.7408" r="11.2018" fill="#F1F3FF"/>
<circle cx="63.6583" cy="177.31" r="10.6554" fill="#F1F3FF"/>
<circle cx="254.362" cy="166.927" r="10.6554" fill="#F1F3FF"/>
<circle cx="233.597" cy="178.949" r="5.19107" fill="#F1F3FF"/>
<path d="M259.366 134.049L261.04 141.954L268.832 143.652L261.04 145.349L259.366 153.255L257.693 145.349L249.9 143.652L257.693 141.954L259.366 134.049Z" fill="white"/>
<path d="M249.359 53.3361C249.481 52.7584 250.306 52.7584 250.428 53.3361L251.494 58.3704C251.538 58.5807 251.702 58.7454 251.912 58.7911L256.909 59.8796C257.482 60.0045 257.482 60.8225 256.909 60.9474L251.912 62.0359C251.702 62.0817 251.538 62.2463 251.494 62.4567L250.428 67.4909C250.306 68.0686 249.481 68.0686 249.359 67.4909L248.293 62.4567C248.249 62.2463 248.085 62.0817 247.875 62.0359L242.879 60.9474C242.305 60.8225 242.305 60.0045 242.879 59.8796L247.875 58.7911C248.085 58.7454 248.249 58.5807 248.293 58.3704L249.359 53.3361Z" fill="#C4CBF5"/>
<path d="M50.9392 119.453C51.0615 118.876 51.8861 118.876 52.0084 119.453L53.835 128.083C53.8795 128.293 54.0432 128.458 54.2533 128.504L62.7937 130.364C63.3672 130.489 63.3672 131.307 62.7937 131.432L54.2533 133.292C54.0432 133.338 53.8795 133.503 53.835 133.713L52.0084 142.343C51.8861 142.92 51.0615 142.92 50.9392 142.343L49.1126 133.713C49.0681 133.503 48.9044 133.338 48.6943 133.292L40.1539 131.432C39.5804 131.307 39.5804 130.489 40.1539 130.364L48.6943 128.504C48.9044 128.458 49.0681 128.293 49.1126 128.083L50.9392 119.453Z" fill="#C4CBF5"/>
<path d="M84.9834 27.6073C84.6666 27.5399 84.6666 27.0878 84.9834 27.0204L89.7732 26.0019C89.8887 25.9773 89.979 25.8873 90.004 25.772L91.0353 21.0159C91.1037 20.7007 91.5533 20.7007 91.6217 21.0159L92.653 25.772C92.678 25.8873 92.7684 25.9773 92.8838 26.0019L97.6736 27.0204C97.9904 27.0878 97.9904 27.5399 97.6736 27.6073L92.8838 28.6259C92.7684 28.6504 92.678 28.7404 92.653 28.8557L91.6217 33.6118C91.5533 33.927 91.1037 33.927 91.0353 33.6118L90.004 28.8557C89.979 28.7404 89.8887 28.6504 89.7732 28.6259L84.9834 27.6073Z" fill="#C4CBF5"/>
<circle cx="171.578" cy="80.3177" r="60.7464" fill="#DDE2FF" stroke="#C4CBF5" stroke-width="2"/>
<circle cx="171.579" cy="80.3179" r="50.9107" fill="url(#paint0_linear_161_4188)" stroke="#C4CBF5" stroke-width="2"/>
<path d="M92.4795 192.677L125.261 147.147L126.718 146.055L129.996 145.326H134.731L137.281 147.147L139.831 148.24L142.016 150.79L143.837 154.796L115.427 208.34L112.148 210.161H108.142L102.678 208.34L98.3073 206.518L94.3007 201.055L92.4795 198.869V192.677Z" fill="#DDE2FF"/>
<path d="M150.029 137.312L141.719 150.789" stroke="#C4CBF5" stroke-width="2"/>
<path d="M140.262 132.943L132.249 144.963" stroke="#C4CBF5" stroke-width="2"/>
<path d="M127.447 145.326L92.1152 193.77" stroke="#C4CBF5" stroke-width="2"/>
<path d="M143.474 154.068L115.063 209.068" stroke="#C4CBF5" stroke-width="2"/>
<path d="M126.719 146.055L127.318 145.721C128.63 144.99 130.137 144.689 131.629 144.858V144.858C132.238 144.927 132.836 145.074 133.408 145.294L134.435 145.69L134.781 145.806C136.709 146.448 138.461 147.531 139.898 148.969V148.969L141.028 150.098C141.487 150.557 141.888 151.071 142.223 151.628V151.628C142.614 152.28 142.909 152.984 143.1 153.72L143.474 155.161" stroke="#C4CBF5" stroke-width="2"/>
<path d="M115.791 208.34L114.24 209.038C112.737 209.714 111.116 210.088 109.469 210.14V210.14C108.19 210.18 106.912 210.025 105.68 209.68L104.635 209.388L104.285 209.269C101.188 208.218 98.368 206.483 96.0341 204.193V204.193L94.6847 202.869C93.6298 201.834 92.8391 200.56 92.3794 199.155V199.155C91.8076 197.408 91.7713 195.53 92.275 193.761L92.48 193.042" stroke="#C4CBF5" stroke-width="2"/>
<defs>
<linearGradient id="paint0_linear_161_4188" x1="206.55" y1="33.3251" x2="134.148" y2="119.934" gradientUnits="userSpaceOnUse">
<stop stop-color="#DDE2FF"/>
<stop offset="1" stop-color="white"/>
</linearGradient>
</defs>
</svg>
