<svg width="24" height="24" viewBox="0 0 24 24" fill="none" xmlns="http://www.w3.org/2000/svg">
<g id="vscode-icons:file-type-excel">
<path id="Vector" d="M14.6855 11.5133L6.38379 10.0508V20.8575C6.38369 20.975 6.40678 21.0913 6.45173 21.1998C6.49667 21.3083 6.5626 21.4069 6.64573 21.4899C6.72885 21.5729 6.82754 21.6387 6.93613 21.6834C7.04472 21.7282 7.16108 21.7511 7.27854 21.7508H21.6035C21.7211 21.7513 21.8376 21.7285 21.9464 21.6839C22.0552 21.6392 22.154 21.5734 22.2373 21.4904C22.3206 21.4074 22.3867 21.3088 22.4317 21.2002C22.4768 21.0916 22.4999 20.9751 22.4998 20.8575V16.8758L14.6855 11.5133Z" fill="#185C37"/>
<path id="Vector_2" d="M14.6855 2.25H7.27854C7.16108 2.24971 7.04472 2.2726 6.93613 2.31736C6.82754 2.36213 6.72885 2.42789 6.64573 2.51088C6.5626 2.59386 6.49667 2.69244 6.45173 2.80096C6.40678 2.90947 6.38369 3.0258 6.38379 3.14325V7.125L14.6855 12L19.0813 13.4625L22.4998 12V7.125L14.6855 2.25Z" fill="#21A366"/>
<path id="Vector_3" d="M6.38379 7.125H14.6855V12H6.38379V7.125Z" fill="#107C41"/>
<path id="Vector_4" opacity="0.1" d="M12.3253 6.15039H6.38379V18.3379H12.3253C12.562 18.3367 12.7888 18.2423 12.9564 18.0751C13.124 17.9079 13.219 17.6814 13.2208 17.4446V7.04364C13.219 6.80689 13.124 6.58038 12.9564 6.41318C12.7888 6.24598 12.562 6.15157 12.3253 6.15039Z" fill="black"/>
<path id="Vector_5" opacity="0.2" d="M11.837 6.63672H6.38379V18.8242H11.837C12.0738 18.823 12.3005 18.7286 12.4682 18.5614C12.6358 18.3942 12.7308 18.1677 12.7325 17.931V7.52997C12.7308 7.29322 12.6358 7.06671 12.4682 6.89951C12.3005 6.73231 12.0738 6.6379 11.837 6.63672Z" fill="black"/>
<path id="Vector_6" opacity="0.2" d="M11.837 6.63672H6.38379V17.8492H11.837C12.0738 17.848 12.3005 17.7536 12.4682 17.5864C12.6358 17.4192 12.7308 17.1927 12.7325 16.956V7.52997C12.7308 7.29322 12.6358 7.06671 12.4682 6.89951C12.3005 6.73231 12.0738 6.6379 11.837 6.63672Z" fill="black"/>
<path id="Vector_7" opacity="0.2" d="M11.3488 6.63672H6.38379V17.8492H11.3488C11.5855 17.848 11.8123 17.7536 11.9799 17.5864C12.1475 17.4192 12.2425 17.1927 12.2443 16.956V7.52997C12.2425 7.29322 12.1475 7.06671 11.9799 6.89951C11.8123 6.73231 11.5855 6.6379 11.3488 6.63672Z" fill="black"/>
<path id="Vector_8" d="M2.3955 6.63672H11.349C11.5862 6.63652 11.8137 6.7305 11.9816 6.89799C12.1496 7.06549 12.2441 7.2928 12.2445 7.52997V16.4685C12.2441 16.7056 12.1496 16.933 11.9816 17.1005C11.8137 17.2679 11.5862 17.3619 11.349 17.3617H2.3955C2.27798 17.3621 2.16154 17.3393 2.05286 17.2946C1.94418 17.2499 1.84541 17.1841 1.7622 17.1011C1.679 17.0181 1.613 16.9195 1.56801 16.8109C1.52301 16.7024 1.4999 16.586 1.5 16.4685V7.52997C1.4999 7.41245 1.52301 7.29607 1.56801 7.1875C1.613 7.07894 1.679 6.98033 1.7622 6.89733C1.84541 6.81434 1.94418 6.74859 2.05286 6.70387C2.16154 6.65915 2.27798 6.63633 2.3955 6.63672Z" fill="url(#paint0_linear_739_3154)"/>
<path id="Vector_9" d="M4.2749 14.9052L6.15815 11.9922L4.43315 9.0957H5.8184L6.75965 10.9505C6.84665 11.126 6.90965 11.2565 6.93815 11.3435H6.9509C7.0124 11.203 7.0774 11.0665 7.1459 10.934L8.1524 9.0987H9.4274L7.65815 11.9787L9.4724 14.9075H8.11565L7.02815 12.8742C6.9778 12.7867 6.9349 12.6951 6.8999 12.6005H6.8819C6.85012 12.6927 6.80784 12.7811 6.7559 12.8637L5.63615 14.9052H4.2749Z" fill="white"/>
<path id="Vector_10" d="M21.6043 2.25001H14.6855V7.12501H22.4998V3.14326C22.4999 3.02573 22.4768 2.90935 22.4318 2.80079C22.3868 2.69222 22.3208 2.59361 22.2376 2.51061C22.1544 2.42762 22.0556 2.36187 21.9469 2.31715C21.8383 2.27243 21.7218 2.24961 21.6043 2.25001Z" fill="#33C481"/>
<path id="Vector_11" d="M14.6855 12H22.4998V16.875H14.6855V12Z" fill="#107C41"/>
</g>
<defs>
<linearGradient id="paint0_linear_739_3154" x1="3.3705" y1="5.93472" x2="10.374" y2="18.0637" gradientUnits="userSpaceOnUse">
<stop stop-color="#18884F"/>
<stop offset="0.5" stop-color="#117E43"/>
<stop offset="1" stop-color="#0B6631"/>
</linearGradient>
</defs>
</svg>
