<svg width="24" height="24" viewBox="0 0 24 24" fill="none" xmlns="http://www.w3.org/2000/svg">
<g id="Lead navigation open/Variant3">
<path id="Icon" d="M9.55232 12.0488C9.24772 11.7442 8.75385 11.7442 8.44924 12.0488C8.14463 12.3535 8.14463 12.8473 8.44924 13.1519L9.55232 12.0488ZM10.8008 14.4004L10.2492 14.9519C10.5538 15.2565 11.0477 15.2565 11.3523 14.9519L10.8008 14.4004ZM15.5523 10.7519C15.8569 10.4473 15.8569 9.95345 15.5523 9.64885C15.2477 9.34424 14.7538 9.34424 14.4492 9.64885L15.5523 10.7519ZM6.40832 19.4639C6.71293 19.1593 6.71293 18.6655 6.40832 18.3608C6.10372 18.0562 5.60985 18.0562 5.30524 18.3608L6.40832 19.4639ZM2.61724 21.0488C2.31263 21.3535 2.31263 21.8473 2.61724 22.1519C2.92185 22.4565 3.41572 22.4565 3.72032 22.1519L2.61724 21.0488ZM20.2812 22.1519C20.5858 22.4565 21.0797 22.4565 21.3843 22.1519C21.6889 21.8473 21.6889 21.3535 21.3843 21.0488L20.2812 22.1519ZM18.6963 18.3608C18.3917 18.0562 17.8978 18.0562 17.5932 18.3608C17.2886 18.6655 17.2886 19.1593 17.5932 19.4639L18.6963 18.3608ZM5.35232 2.95193C5.65693 2.64733 5.65693 2.15346 5.35233 1.84885C5.04772 1.54424 4.55385 1.54424 4.24924 1.84885L5.35232 2.95193ZM1.24924 4.84885C0.944629 5.15346 0.944629 5.64732 1.24924 5.95193C1.55385 6.25654 2.04772 6.25654 2.35232 5.95193L1.24924 4.84885ZM21.6492 5.95193C21.9538 6.25654 22.4477 6.25654 22.7523 5.95193C23.0569 5.64732 23.0569 5.15346 22.7523 4.84885L21.6492 5.95193ZM19.7523 1.84885C19.4477 1.54424 18.9538 1.54424 18.6492 1.84885C18.3446 2.15346 18.3446 2.64733 18.6492 2.95193L19.7523 1.84885ZM8.44924 13.1519L10.2492 14.9519L11.3523 13.8488L9.55232 12.0488L8.44924 13.1519ZM11.3523 14.9519L15.5523 10.7519L14.4492 9.64885L10.2492 13.8488L11.3523 14.9519ZM5.30524 18.3608L2.61724 21.0488L3.72032 22.1519L6.40832 19.4639L5.30524 18.3608ZM21.3843 21.0488L18.6963 18.3608L17.5932 19.4639L20.2812 22.1519L21.3843 21.0488ZM19.6688 12.7684C19.6688 17.0033 16.2357 20.4364 12.0008 20.4364V21.9964C17.0973 21.9964 21.2288 17.8649 21.2288 12.7684H19.6688ZM12.0008 20.4364C7.76586 20.4364 4.33278 17.0033 4.33278 12.7684H2.77278C2.77278 17.8649 6.9043 21.9964 12.0008 21.9964V20.4364ZM4.33278 12.7684C4.33278 8.53347 7.76586 5.10039 12.0008 5.10039V3.54039C6.9043 3.54039 2.77278 7.67191 2.77278 12.7684H4.33278ZM12.0008 5.10039C16.2357 5.10039 19.6688 8.53347 19.6688 12.7684H21.2288C21.2288 7.67191 17.0973 3.54039 12.0008 3.54039V5.10039ZM4.24924 1.84885L1.24924 4.84885L2.35232 5.95193L5.35232 2.95193L4.24924 1.84885ZM22.7523 4.84885L19.7523 1.84885L18.6492 2.95193L21.6492 5.95193L22.7523 4.84885Z" fill="#C1C1C1"/>
</g>
</svg>
