<svg width="22" height="22" viewBox="0 0 22 22" fill="none" xmlns="http://www.w3.org/2000/svg">
<path d="M8.55232 11.0488C8.24772 10.7442 7.75385 10.7442 7.44924 11.0488C7.14463 11.3535 7.14463 11.8473 7.44924 12.1519L8.55232 11.0488ZM9.80078 13.4004L9.24924 13.9519C9.55385 14.2565 10.0477 14.2565 10.3523 13.9519L9.80078 13.4004ZM14.5523 9.75193C14.8569 9.44732 14.8569 8.95345 14.5523 8.64885C14.2477 8.34424 13.7538 8.34424 13.4492 8.64885L14.5523 9.75193ZM5.40832 18.4639C5.71293 18.1593 5.71293 17.6655 5.40832 17.3608C5.10372 17.0562 4.60985 17.0562 4.30524 17.3608L5.40832 18.4639ZM1.61724 20.0488C1.31263 20.3535 1.31263 20.8473 1.61724 21.1519C1.92185 21.4565 2.41572 21.4565 2.72032 21.1519L1.61724 20.0488ZM19.2812 21.1519C19.5858 21.4565 20.0797 21.4565 20.3843 21.1519C20.6889 20.8473 20.6889 20.3535 20.3843 20.0488L19.2812 21.1519ZM17.6963 17.3608C17.3917 17.0562 16.8978 17.0562 16.5932 17.3608C16.2886 17.6655 16.2886 18.1593 16.5932 18.4639L17.6963 17.3608ZM4.35232 1.95193C4.65693 1.64733 4.65693 1.15346 4.35233 0.848848C4.04772 0.544239 3.55385 0.544238 3.24924 0.848847L4.35232 1.95193ZM0.249238 3.84885C-0.0553709 4.15346 -0.055371 4.64732 0.249238 4.95193C0.553847 5.25654 1.04772 5.25654 1.35232 4.95193L0.249238 3.84885ZM20.6492 4.95193C20.9538 5.25654 21.4477 5.25654 21.7523 4.95193C22.0569 4.64732 22.0569 4.15346 21.7523 3.84885L20.6492 4.95193ZM18.7523 0.848847C18.4477 0.544238 17.9538 0.544238 17.6492 0.848847C17.3446 1.15346 17.3446 1.64733 17.6492 1.95193L18.7523 0.848847ZM7.44924 12.1519L9.24924 13.9519L10.3523 12.8488L8.55232 11.0488L7.44924 12.1519ZM10.3523 13.9519L14.5523 9.75193L13.4492 8.64885L9.24924 12.8488L10.3523 13.9519ZM4.30524 17.3608L1.61724 20.0488L2.72032 21.1519L5.40832 18.4639L4.30524 17.3608ZM20.3843 20.0488L17.6963 17.3608L16.5932 18.4639L19.2812 21.1519L20.3843 20.0488ZM18.6688 11.7684C18.6688 16.0033 15.2357 19.4364 11.0008 19.4364V20.9964C16.0973 20.9964 20.2288 16.8649 20.2288 11.7684H18.6688ZM11.0008 19.4364C6.76586 19.4364 3.33278 16.0033 3.33278 11.7684H1.77278C1.77278 16.8649 5.9043 20.9964 11.0008 20.9964V19.4364ZM3.33278 11.7684C3.33278 7.53347 6.76586 4.10039 11.0008 4.10039V2.54039C5.9043 2.54039 1.77278 6.67191 1.77278 11.7684H3.33278ZM11.0008 4.10039C15.2357 4.10039 18.6688 7.53347 18.6688 11.7684H20.2288C20.2288 6.67191 16.0973 2.54039 11.0008 2.54039V4.10039ZM3.24924 0.848847L0.249238 3.84885L1.35232 4.95193L4.35232 1.95193L3.24924 0.848847ZM21.7523 3.84885L18.7523 0.848847L17.6492 1.95193L20.6492 4.95193L21.7523 3.84885Z" fill="#007143"/>
</svg>
