<svg width="80" height="80" viewBox="0 0 80 80" fill="none" xmlns="http://www.w3.org/2000/svg">
<g clip-path="url(#clip0_8320_10384)">
<mask id="path-1-inside-1_8320_10384" fill="white">
<path d="M0 0H80V80H0V0Z"/>
</mask>
<path d="M0 0H80V80H0V0Z" fill="#F3F4F7"/>
<path fill-rule="evenodd" clip-rule="evenodd" d="M40.0237 16.2344C41.7016 16.2344 43.0396 17.5916 43.0396 19.2666C43.0396 20.9415 41.7016 22.2771 40.0237 22.2771C38.3458 22.2771 37.0078 20.9198 37.0078 19.2666C37.0078 17.6133 38.3675 16.2344 40.0237 16.2344Z" fill="#115BA9"/>
<path fill-rule="evenodd" clip-rule="evenodd" d="M39.9534 63.7673C38.2972 63.7673 36.9375 62.4101 36.9375 60.7351C36.9375 59.0602 38.2972 57.7246 39.9534 57.7246C41.6096 57.7246 42.991 59.0819 42.991 60.7351C42.991 62.3884 41.6313 63.7673 39.9534 63.7673Z" fill="#115BA9"/>
<path fill-rule="evenodd" clip-rule="evenodd" d="M28.1301 49.1742C22.214 41.0306 22.7998 33.2696 29.6923 26.707C24.7526 32.9736 23.7979 40.0054 30.1262 47.6148C30.7843 48.5172 30.8711 49.6507 30.213 50.0116C29.7356 50.286 29.0341 50.4448 28.1301 49.1742Z" fill="#115BA9"/>
<path fill-rule="evenodd" clip-rule="evenodd" d="M51.879 30.8549C57.7734 38.9985 57.1803 46.7812 50.3168 53.322C55.2565 47.0555 56.2112 40.0165 49.8829 32.4215C49.2247 31.5191 49.138 30.3856 49.7961 30.0246C50.2517 29.7503 50.9533 29.5987 51.879 30.8621" fill="#115BA9"/>
<path fill-rule="evenodd" clip-rule="evenodd" d="M30.7523 28.0749C38.9754 22.126 46.8225 22.7108 53.4184 29.656C47.0974 24.6818 40.0024 23.7071 32.3217 30.0603C31.4176 30.7389 30.2822 30.8328 29.8988 30.1758C29.624 29.6993 29.4721 28.999 30.7595 28.0677" fill="black"/>
<path fill-rule="evenodd" clip-rule="evenodd" d="M49.2465 51.9532C41.0233 57.8804 33.1762 57.2884 26.5586 50.3938C32.8797 55.3464 39.9963 56.321 47.677 49.9606C48.5811 49.282 49.7166 49.1953 50.0999 49.874C50.3458 50.3288 50.5049 51.0291 49.2392 51.9532" fill="black"/>
<path fill-rule="evenodd" clip-rule="evenodd" d="M16 39.997C16 38.3221 17.3597 36.9648 19.0376 36.9648C20.7155 36.9648 22.0752 38.3221 22.0752 39.997C22.0752 41.672 20.7155 43.0292 19.0376 43.0292C17.3597 43.0292 16 41.672 16 39.997Z" fill="black"/>
<path fill-rule="evenodd" clip-rule="evenodd" d="M63.9992 40.0342C63.9992 41.7091 62.6395 43.088 60.9616 43.088C59.2837 43.088 57.9023 41.7091 57.9023 40.0342C57.9023 38.3592 59.262 37.002 60.9616 37.002C62.6612 37.002 63.9992 38.3592 63.9992 40.0342Z" fill="black"/>
</g>
<path d="M80 80V81H81V80H80ZM79 0V80H81V0H79ZM80 79H0V81H80V79Z" fill="#C9CED3" mask="url(#path-1-inside-1_8320_10384)"/>
<defs>
<clipPath id="clip0_8320_10384">
<path d="M0 0H80V80H0V0Z" fill="white"/>
</clipPath>
</defs>
</svg>
