<svg width="28" height="28" viewBox="0 0 28 28" fill="none" xmlns="http://www.w3.org/2000/svg">
<g id="help-square-contained">
<path id="Icon" d="M14 19.2499V19.2961M11.3761 10.7683C11.3761 9.29116 12.5514 8.09372 14.0011 8.09372C15.4509 8.09372 16.6261 9.29116 16.6261 10.7683C16.6261 12.2454 15.4509 13.4428 14.0011 13.4428C14.0011 13.4428 14 14.2411 14 15.2259M24.5 7.43748L24.5 20.5625C24.5 22.7371 22.7371 24.5 20.5625 24.5H7.4375C5.26288 24.5 3.5 22.7371 3.5 20.5625V7.43748C3.5 5.26287 5.26288 3.5 7.4375 3.5H20.5625C22.7371 3.5 24.5 5.26287 24.5 7.43748Z" stroke="black" stroke-width="1.5" stroke-linecap="round" stroke-linejoin="round"/>
</g>
</svg>
