<svg width="22" height="22" viewBox="0 0 22 22" fill="none" xmlns="http://www.w3.org/2000/svg">
<path d="M1.49219 12.3765C1.82463 14.6607 2.96835 16.7488 4.7141 18.2589C6.45986 19.7689 8.69095 20.6 10.9992 20.6C13.3074 20.6 15.5385 19.7689 17.2843 18.2589C19.03 16.7488 20.1738 14.6607 20.5062 12.3765M11.0006 1.4C9.90888 1.4 8.86192 1.83367 8.08998 2.6056C7.31805 3.37753 6.88438 4.4245 6.88438 5.51618V11.0044C6.88438 12.0961 7.31805 13.1431 8.08998 13.915C8.86192 14.6869 9.90888 15.1206 11.0006 15.1206C12.0922 15.1206 13.1392 14.6869 13.9111 13.915C14.6831 13.1431 15.1167 12.0961 15.1167 11.0044V5.51618C15.1167 4.4245 14.6831 3.37753 13.9111 2.6056C13.1392 1.83367 12.0922 1.4 11.0006 1.4Z" stroke="#007143" stroke-width="1.5" stroke-linecap="round" stroke-linejoin="round"/>
</svg>
