<svg width="40" height="40" viewBox="0 0 40 40" fill="none" xmlns="http://www.w3.org/2000/svg">
<rect width="40" height="40" rx="6" fill="#CCF2E2"/>
<path d="M10.4922 21.3765C10.8246 23.6607 11.9683 25.7488 13.7141 27.2589C15.4599 28.7689 17.6909 29.6 19.9992 29.6C22.3074 29.6 24.5385 28.7689 26.2843 27.2589C28.03 25.7488 29.1738 23.6607 29.5062 21.3765M20.0006 10.4C18.9089 10.4 17.8619 10.8337 17.09 11.6056C16.3181 12.3775 15.8844 13.4245 15.8844 14.5162V20.0044C15.8844 21.0961 16.3181 22.1431 17.09 22.915C17.8619 23.6869 18.9089 24.1206 20.0006 24.1206C21.0922 24.1206 22.1392 23.6869 22.9111 22.915C23.6831 22.1431 24.1167 21.0961 24.1167 20.0044V14.5162C24.1167 13.4245 23.6831 12.3775 22.9111 11.6056C22.1392 10.8337 21.0922 10.4 20.0006 10.4Z" stroke="#007143" stroke-width="1.5" stroke-linecap="round" stroke-linejoin="round"/>
</svg>
