<svg width="24" height="25" viewBox="0 0 24 25" fill="none" xmlns="http://www.w3.org/2000/svg">
<g id="logout-03">
<path id="Icon" d="M9.35294 17.1884V19.2884C9.35294 19.8453 9.57605 20.3795 9.97319 20.7733C10.3703 21.1671 10.909 21.3884 11.4706 21.3884L18.8824 21.3884C19.444 21.3884 19.9826 21.1671 20.3798 20.7733C20.7769 20.3795 21 19.8453 21 19.2884L21 6.68838C21 6.13143 20.7769 5.59728 20.3798 5.20346C19.9826 4.80963 19.444 4.58838 18.8824 4.58838L11.4706 4.58838C10.909 4.58838 10.3703 4.80963 9.97319 5.20345C9.57605 5.59728 9.35294 6.13142 9.35294 6.68838V8.78838M15.7059 12.9884L3 12.9884M3 12.9884L6.17647 16.1384M3 12.9884L6.17647 9.83838" stroke="#F44336" stroke-width="1.5" stroke-linecap="round" stroke-linejoin="round"/>
</g>
</svg>
