<svg width="279" height="90" viewBox="0 0 279 90" fill="none" xmlns="http://www.w3.org/2000/svg">
<g clip-path="url(#clip0_8255_10573)">
<path fill-rule="evenodd" clip-rule="evenodd" d="M28.3697 14.2773C30.2814 14.2773 31.8058 15.8302 31.8058 17.7464C31.8058 19.6627 30.2814 21.1908 28.3697 21.1908C26.458 21.1908 24.9336 19.6379 24.9336 17.7464C24.9336 15.855 26.4827 14.2773 28.3697 14.2773Z" fill="#115BA9"/>
<path fill-rule="evenodd" clip-rule="evenodd" d="M28.2877 68.6634C26.4007 68.6634 24.8516 67.1106 24.8516 65.1943C24.8516 63.2781 26.4007 61.75 28.2877 61.75C30.1747 61.75 31.7485 63.3028 31.7485 65.1943C31.7485 67.0858 30.1994 68.6634 28.2877 68.6634Z" fill="#115BA9"/>
<path fill-rule="evenodd" clip-rule="evenodd" d="M14.8124 51.9681C8.072 42.651 8.73944 33.7718 16.5922 26.2637C10.9643 33.4331 9.87657 41.4782 17.0866 50.184C17.8365 51.2164 17.9354 52.5132 17.1855 52.9262C16.6417 53.2401 15.8424 53.4218 14.8124 51.9681Z" fill="#115BA9"/>
<path fill-rule="evenodd" clip-rule="evenodd" d="M41.8729 31.0017C48.5886 40.3187 47.9129 49.2227 40.093 56.7061C45.721 49.5366 46.8087 41.4833 39.5986 32.7941C38.8488 31.7616 38.7499 30.4648 39.4998 30.0518C40.0189 29.738 40.8182 29.5645 41.8729 31.01" fill="#115BA9"/>
<path fill-rule="evenodd" clip-rule="evenodd" d="M17.8075 27.8189C27.1765 21.0128 36.117 21.6819 43.6319 29.6278C36.4301 23.9368 28.3466 22.8217 19.5956 30.0903C18.5656 30.8667 17.2719 30.9741 16.8352 30.2225C16.5221 29.6773 16.349 28.8761 17.8158 27.8106" fill="black"/>
<path fill-rule="evenodd" clip-rule="evenodd" d="M38.8765 55.1425C29.5075 61.9237 20.567 61.2464 13.0273 53.3583C20.2292 59.0245 28.3374 60.1396 37.0884 52.8628C38.1184 52.0863 39.4121 51.9872 39.8488 52.7636C40.1289 53.284 40.3102 54.0852 38.8682 55.1425" fill="black"/>
<path fill-rule="evenodd" clip-rule="evenodd" d="M0.996094 41.4593C0.996094 39.5431 2.54523 37.9902 4.45692 37.9902C6.36862 37.9902 7.91776 39.5431 7.91776 41.4593C7.91776 43.3756 6.36862 44.9284 4.45692 44.9284C2.54523 44.9284 0.996094 43.3756 0.996094 41.4593Z" fill="black"/>
<path fill-rule="evenodd" clip-rule="evenodd" d="M55.6886 41.5101C55.6886 43.4264 54.1394 45.004 52.2277 45.004C50.316 45.004 48.7422 43.4264 48.7422 41.5101C48.7422 39.5939 50.2913 38.041 52.2277 38.041C54.1642 38.041 55.6886 39.5939 55.6886 41.5101Z" fill="black"/>
<path d="M214.198 40.5151V37.7151C214.528 37.7564 214.907 37.7977 215.286 37.7977C216.283 37.7977 217.247 37.6325 218.12 37.2938C218.994 36.9552 219.826 36.4596 220.658 35.7905L221.408 38.3841C220.576 39.0944 219.612 39.6396 218.532 40.0113C217.494 40.3912 216.365 40.5977 215.236 40.5977C214.857 40.5977 214.528 40.5564 214.198 40.5151ZM214.198 32.371V29.7361L219.117 26.6883C218.573 26.1844 217.988 25.8127 217.362 25.5567C216.736 25.3502 216.068 25.2263 215.277 25.2263C214.898 25.2263 214.528 25.2676 214.19 25.3089V22.8475C214.569 22.7649 214.981 22.7649 215.401 22.7649C216.859 22.7649 218.194 23.1035 219.439 23.8139C220.65 24.5242 221.812 25.6063 222.858 27.0269L214.19 32.371H214.198ZM214.198 22.8392V25.3006C212.987 25.5071 211.948 26.0523 211.034 26.9691C209.864 28.142 209.246 29.5627 209.246 31.2724C209.246 31.5698 209.328 31.9828 209.41 32.5692C209.41 32.6105 209.452 32.6518 209.452 32.6931L214.198 29.7279V32.3627L210.234 34.7415C210.82 35.741 211.528 36.4513 212.402 36.9965C212.945 37.3269 213.522 37.5829 214.19 37.7068V40.5069C212.229 40.3004 210.564 39.4166 209.147 37.9546C207.482 36.2035 206.65 34.0725 206.65 31.6028C206.65 29.1332 207.524 26.9691 209.188 25.2511C210.605 23.8717 212.229 23.0375 214.19 22.831M182.894 40.5564V38.2189H182.935C183.973 38.2189 184.855 37.839 185.564 37.1699C186.272 36.4596 186.643 35.6253 186.643 34.6259C186.643 33.6265 186.264 32.8335 185.564 32.1232C184.855 31.4129 183.982 31.0742 182.935 31.0742H182.894V28.778C183.603 28.8193 184.27 28.9845 184.855 29.2818C185.523 29.6122 186.108 30.1161 186.602 30.7851V28.2411C186.602 27.283 186.314 26.6139 185.77 26.1927C185.226 25.7714 184.311 25.5649 183.018 25.5649H182.894V23.0127C183.273 22.9714 183.561 22.9714 183.858 22.9714C185.943 22.9714 187.401 23.3513 188.192 24.0534C188.983 24.7225 189.354 26.1018 189.354 28.0677V39.9287L186.726 40.3912V38.3015C186.182 39.0531 185.564 39.5983 184.764 40.0113C184.179 40.3004 183.553 40.4738 182.886 40.5564M193.235 38.5906L194.652 36.4596C195.073 37.046 195.608 37.459 196.193 37.7564C196.82 38.0455 197.446 38.2189 198.155 38.2189C198.987 38.2189 199.695 37.9629 200.239 37.4673C200.742 37.013 201.03 36.3852 201.03 35.6336C201.03 34.9646 200.824 34.4194 200.363 34.0064C199.943 33.6347 199.069 33.2135 197.825 32.7509C196.284 32.2058 195.155 31.5781 194.537 30.8677C193.87 30.1574 193.532 29.1992 193.532 28.0677C193.532 26.5644 194.035 25.3502 195.073 24.3508C196.07 23.3926 197.363 22.8888 198.904 22.8888C199.943 22.8888 200.866 23.0953 201.657 23.4752C202.448 23.8552 203.156 24.3921 203.783 25.1437L202.159 26.8948C201.739 26.3083 201.245 25.8953 200.701 25.5567C200.157 25.2676 199.613 25.0941 199.036 25.0941C198.286 25.0941 197.66 25.3006 197.157 25.8045C196.655 26.267 196.408 26.8039 196.408 27.473C196.408 28.6871 197.578 29.7279 199.951 30.6034C200.074 30.686 200.198 30.7273 200.289 30.7686C201.624 31.2724 202.579 31.9002 203.123 32.6105C203.708 33.3209 203.997 34.2377 203.997 35.3693C203.997 36.8313 203.453 38.0868 202.332 39.0862C201.245 40.0443 199.827 40.5482 198.163 40.5482C197.166 40.5482 196.243 40.383 195.369 40.003C194.537 39.6726 193.829 39.2101 193.243 38.5823M182.894 23.0127V25.5649C182.391 25.5649 181.856 25.6063 181.312 25.6476C180.727 25.7301 180.109 25.8127 179.483 25.9366L180.191 23.2192C181.023 23.1366 181.732 23.054 182.317 23.054C182.523 23.0127 182.729 23.0127 182.894 23.0127ZM182.894 28.778V31.0742C181.938 31.0742 181.065 31.4046 180.315 32.1232C179.565 32.8335 179.186 33.6265 179.186 34.5846C179.186 35.5427 179.565 36.4678 180.274 37.1782C180.982 37.8472 181.856 38.1859 182.894 38.2272V40.5647C182.688 40.606 182.482 40.606 182.226 40.606C180.562 40.606 179.186 40.0195 178.098 38.9375C177.019 37.8059 176.434 36.3852 176.434 34.6342C176.434 32.8831 177.019 31.5863 178.148 30.4547C179.318 29.3727 180.776 28.7863 182.523 28.7863H182.894V28.778ZM166.183 40.5151V37.7151C166.562 37.7564 166.933 37.7977 167.312 37.7977C168.309 37.7977 169.273 37.6325 170.147 37.2938C171.02 36.9552 171.852 36.4596 172.652 35.7905L173.401 38.3841C172.569 39.0944 171.613 39.6396 170.567 40.0113C169.487 40.3912 168.4 40.5977 167.271 40.5977C166.9 40.5977 166.562 40.5564 166.183 40.5151ZM166.183 32.371V29.7361L171.144 26.6883C170.608 26.1844 170.023 25.8127 169.397 25.5567C168.77 25.3502 168.062 25.2263 167.312 25.2263C166.941 25.2263 166.562 25.2676 166.183 25.3089V22.8475C166.603 22.7649 167.015 22.7649 167.436 22.7649C168.894 22.7649 170.229 23.1035 171.44 23.8139C172.693 24.5242 173.813 25.6063 174.86 27.0269L166.191 32.371H166.183ZM166.183 22.8392V25.3006C165.021 25.5071 163.934 26.0523 163.019 26.9691C161.857 28.142 161.272 29.5627 161.272 31.2724C161.272 31.5698 161.313 31.9828 161.437 32.5692V32.6931L166.191 29.7279V32.3627L162.277 34.7415C162.821 35.741 163.53 36.4513 164.403 36.9965C164.947 37.3269 165.573 37.5829 166.191 37.7068V40.5069C164.271 40.3004 162.607 39.4166 161.19 37.9546C159.525 36.2035 158.693 34.0725 158.693 31.6028C158.693 29.1332 159.525 26.9691 161.239 25.2511C162.615 23.8717 164.28 23.0375 166.2 22.831M101.128 40.5564V38.2189H101.169C102.207 38.2189 103.089 37.839 103.797 37.1699C104.506 36.4596 104.877 35.6253 104.877 34.6259C104.877 33.6265 104.506 32.8335 103.797 32.1232C103.089 31.4129 102.215 31.0742 101.169 31.0742H101.128V28.778C101.836 28.8193 102.463 28.9845 103.089 29.2818C103.756 29.6122 104.341 30.1161 104.836 30.7851V28.2411C104.836 27.283 104.547 26.6139 104.003 26.1927C103.46 25.7714 102.545 25.5649 101.251 25.5649H101.128V23.0127C101.507 22.9714 101.795 22.9714 102.084 22.9714C104.168 22.9714 105.627 23.3513 106.418 24.0534C107.209 24.7225 107.588 26.1018 107.588 28.0677V39.9287L104.959 40.3912V38.3015C104.415 39.0531 103.789 39.5983 102.998 40.0113C102.413 40.3004 101.787 40.4738 101.119 40.5564M124.134 25.7632C124.719 24.8877 125.428 24.1773 126.26 23.6735C127.092 23.1696 127.974 22.9218 128.888 22.9218C130.553 22.9218 131.805 23.467 132.597 24.549C133.388 25.6806 133.808 27.3904 133.808 29.7692V40.0443L130.85 40.4243V30.1491C130.85 28.6458 130.644 27.5143 130.182 26.8039C129.721 26.0936 129.053 25.7219 128.097 25.7219C126.969 25.7219 126.095 26.1431 125.518 27.0187C124.933 27.8529 124.604 29.1084 124.604 30.7769V40.0526L121.728 40.4325V30.1574C121.728 28.6128 121.522 27.4812 121.06 26.7709C120.648 26.1018 119.94 25.7301 118.934 25.7301C117.806 25.7301 116.973 26.1514 116.388 27.0269C115.803 27.8612 115.515 29.0754 115.515 30.6612V40.0608L112.639 40.4408V23.6074L115.515 23.2274V25.4411C116.017 24.6894 116.685 24.0617 117.517 23.5991C118.308 23.1366 119.14 22.8888 120.014 22.8888C120.929 22.8888 121.728 23.1366 122.436 23.6404C123.145 24.1443 123.73 24.8546 124.142 25.7714M142.682 7.38521V37.0873H157.308L156.18 40.0526H139.51V7.8395L142.674 7.37695L142.682 7.38521ZM101.128 23.0127V25.5649C100.625 25.5649 100.089 25.6063 99.5456 25.6476C98.9605 25.7301 98.3343 25.8127 97.708 25.9366L98.4167 23.2192C99.2489 23.1366 99.9576 23.054 100.543 23.054C100.749 23.0127 100.963 23.0127 101.128 23.0127ZM101.128 28.778V31.0742C100.131 31.0742 99.2572 31.4046 98.5403 32.1232C97.7904 32.8335 97.4196 33.6265 97.4196 34.5846C97.4196 35.5427 97.7987 36.4678 98.4991 37.1782C99.2077 37.8472 100.081 38.1859 101.119 38.2272V40.5647C100.913 40.606 100.658 40.606 100.452 40.606C98.7875 40.606 97.4114 40.0195 96.3237 38.9375C95.2442 37.8059 94.6592 36.3852 94.6592 34.6342C94.6592 32.8831 95.2442 31.5863 96.3649 30.4547C97.535 29.3727 98.9523 28.7863 100.74 28.7863H101.119L101.128 28.778ZM84.4168 40.5151V37.7151C84.7958 37.7564 85.1666 37.7977 85.5457 37.7977C86.5427 37.7977 87.5068 37.6325 88.3391 37.2938C89.2125 36.9552 90.086 36.4596 90.877 35.7905L91.6269 38.3841C90.7946 39.0944 89.8388 39.6396 88.7923 40.0113C87.7128 40.3912 86.6251 40.5977 85.4962 40.5977C85.1254 40.5977 84.7464 40.5564 84.4168 40.5151ZM84.4168 32.371V29.7361L89.3773 26.6883C88.8335 26.1844 88.2484 25.8127 87.6304 25.5567C87.0042 25.3502 86.2955 25.2263 85.5457 25.2263C85.1666 25.2263 84.7958 25.2676 84.4168 25.3089V22.8475C84.8288 22.7649 85.249 22.7649 85.6693 22.7649C87.1278 22.7649 88.4627 23.1035 89.6657 23.8139C90.9182 24.5242 92.0389 25.6063 93.0854 27.0269L84.4168 32.371ZM77.9154 7.84776H78.7064L78.9536 10.7717H77.9071V7.84776H77.9154ZM84.4168 22.8392V25.3006C83.2055 25.5071 82.1672 26.0523 81.2526 26.9691C80.0907 28.142 79.5057 29.5627 79.5057 31.2724C79.5057 31.5698 79.5469 31.9828 79.6705 32.5692V32.6931L84.425 29.7279V32.3627L80.511 34.7415C81.0548 35.741 81.7635 36.4513 82.6369 36.9965C83.1808 37.3269 83.807 37.5829 84.4333 37.7068V40.5069C82.5133 40.3004 80.8488 39.4166 79.4315 37.9546C78.8053 37.2856 78.3027 36.6165 77.9319 35.9062V27.2995C78.3521 26.5479 78.8465 25.8788 79.4727 25.2511C80.8488 23.8717 82.5133 23.0375 84.4333 22.831M58.2051 7.84776H77.9154V10.7717H69.9143V40.0608L66.7501 40.4408V10.78H57.4141L58.2051 7.85602V7.84776ZM77.9154 27.316C77.2479 28.5715 76.9183 30.0335 76.9183 31.6194C76.9183 33.2052 77.2479 34.6259 77.9154 35.9227V27.316Z" fill="#115BA9"/>
<path d="M68.0728 75.3926L73.1569 84.2966L78.1669 75.3926L79.4935 86.9728L77.7302 87.1132L77.1039 80.0841L73.0828 87.1132L69.0534 80.1006L68.353 87.1132L66.8203 86.9728L68.081 75.3926H68.0728Z" fill="black"/>
<path d="M86.892 82.9561V86.9539L85.4995 87.1108V86.5161C85.3264 86.7308 85.1204 86.896 84.8815 87.0117C84.6425 87.1273 84.3623 87.1769 84.0575 87.1769C83.4889 87.1769 83.011 86.9786 82.6237 86.5739C82.2364 86.1692 82.0469 85.6736 82.0469 85.0789C82.0469 84.4511 82.2364 83.939 82.6237 83.5343C83.011 83.1378 83.5136 82.9396 84.1399 82.9396C84.42 82.9396 84.6755 82.9809 84.8897 83.0718C85.1122 83.1626 85.2935 83.2948 85.4418 83.4682V82.9231C85.4418 82.634 85.3594 82.4275 85.2028 82.3201C85.0463 82.2045 84.7579 82.1467 84.3376 82.1467C84.0987 82.1467 83.8597 82.1715 83.6125 82.2128C83.3735 82.2541 83.1263 82.3201 82.8791 82.4027L83.2417 80.9408C83.5713 80.8912 83.8597 80.8582 84.1069 80.8416C84.3541 80.8251 84.5766 80.8086 84.7743 80.8086C85.5489 80.8086 86.101 80.949 86.4224 81.2381C86.7437 81.5189 86.9085 82.0971 86.9085 82.9561H86.892ZM84.4777 84.1621C84.2058 84.1621 83.9751 84.2447 83.7938 84.4099C83.6125 84.575 83.5218 84.7815 83.5218 85.0128C83.5218 85.2441 83.6125 85.4588 83.7938 85.6158C83.9751 85.781 84.2058 85.8636 84.4859 85.8636C84.7661 85.8636 84.9886 85.781 85.1699 85.6158C85.3511 85.4506 85.4418 85.2524 85.4418 85.0128C85.4418 84.7733 85.3511 84.575 85.1699 84.4099C84.9886 84.2447 84.7579 84.1621 84.4859 84.1621H84.4777Z" fill="black"/>
<path d="M91.7158 75.5293V83.6817L94.7811 80.6173L95.8194 81.4928L93.3803 83.8221L95.8771 86.5643L94.5422 87.3325L91.7158 84.169V86.9773L90.1914 87.1177V75.6862L91.7158 75.5376V75.5293Z" fill="black"/>
<path d="M98.4531 77.8867H99.9693V79.5552H98.4531V77.8867ZM99.9693 80.8107V86.9642L98.4531 87.1046V80.9759L99.9693 80.8107Z" fill="black"/>
<path d="M108.376 83.1214V86.9622L106.852 87.1027V83.4518C106.852 83.0554 106.778 82.758 106.621 82.5433C106.465 82.3368 106.242 82.2294 105.945 82.2294C105.608 82.2294 105.352 82.345 105.171 82.5763C104.998 82.8076 104.907 83.1545 104.907 83.6088V86.9622L103.383 87.1027V80.9739L104.907 80.8087V81.5025C105.138 81.2547 105.393 81.0565 105.682 80.9326C105.97 80.8005 106.275 80.7344 106.605 80.7344C107.206 80.7344 107.651 80.9326 107.94 81.3291C108.236 81.7255 108.385 82.3202 108.385 83.1297L108.376 83.1214Z" fill="black"/>
<path d="M116.993 80.8925L116.697 81.9415H116.244C116.408 82.1728 116.54 82.4123 116.631 82.6601C116.721 82.9079 116.763 83.1557 116.763 83.4035C116.763 83.7917 116.664 84.1386 116.483 84.4525C116.293 84.7664 116.029 85.0224 115.683 85.2124C115.98 85.4519 116.211 85.741 116.367 86.0879C116.524 86.4348 116.606 86.79 116.606 87.1865C116.606 87.9133 116.351 88.5246 115.832 89.0201C115.312 89.5157 114.678 89.7635 113.912 89.7635C113.392 89.7635 112.931 89.6561 112.511 89.4331C112.091 89.2101 111.728 88.8797 111.423 88.4337L112.362 87.2856C112.519 87.6242 112.725 87.8803 112.989 88.062C113.252 88.2437 113.549 88.3346 113.879 88.3346C114.233 88.3346 114.53 88.2189 114.769 88.0042C115.008 87.7812 115.123 87.5086 115.123 87.1782C115.123 86.79 114.991 86.4679 114.736 86.2283C114.48 85.9805 114.151 85.8567 113.755 85.8567C113.483 85.8567 113.211 85.9062 112.948 86.0136C112.676 86.121 112.404 86.2779 112.124 86.5009L112.437 85.3776C112.082 85.1298 111.802 84.8324 111.613 84.4773C111.415 84.1221 111.324 83.7421 111.324 83.3374C111.324 82.6106 111.58 81.9993 112.099 81.512C112.618 81.0247 113.261 80.7852 114.043 80.7852C114.208 80.7852 114.53 80.8099 114.991 80.8678C115.452 80.9256 115.832 80.9503 116.112 80.9503C116.252 80.9503 116.4 80.9503 116.54 80.9503C116.68 80.9503 116.837 80.9338 116.993 80.9173V80.8925ZM114.043 82.1315C113.697 82.1315 113.417 82.2471 113.178 82.4867C112.948 82.7262 112.832 83.0153 112.832 83.3622C112.832 83.7091 112.948 83.9899 113.186 84.2295C113.425 84.469 113.706 84.5929 114.043 84.5929C114.381 84.5929 114.661 84.469 114.892 84.2295C115.123 83.9899 115.246 83.7009 115.246 83.3622C115.246 83.0236 115.131 82.7427 114.892 82.4949C114.653 82.2554 114.373 82.1315 114.043 82.1315Z" fill="black"/>
<path d="M128.11 75.5566V86.9716L126.445 87.112V75.7218L128.11 75.5566Z" fill="black"/>
<path d="M136.903 83.1214V86.9622L135.379 87.1027V83.4518C135.379 83.0554 135.305 82.758 135.148 82.5433C134.992 82.3368 134.769 82.2294 134.472 82.2294C134.135 82.2294 133.879 82.345 133.706 82.5763C133.533 82.8076 133.442 83.1545 133.442 83.6088V86.9622L131.918 87.1027V80.9739L133.442 80.8087V81.5025C133.673 81.2547 133.929 81.0565 134.217 80.9326C134.505 80.8087 134.81 80.7344 135.14 80.7344C135.741 80.7344 136.186 80.9326 136.475 81.3291C136.771 81.7255 136.92 82.3202 136.92 83.1297L136.903 83.1214Z" fill="black"/>
<path d="M146.232 75.5258V86.9408L144.691 87.0813V86.3874C144.452 86.6435 144.18 86.8334 143.867 86.9656C143.554 87.0978 143.208 87.1638 142.829 87.1638C141.98 87.1638 141.263 86.8582 140.678 86.2388C140.093 85.6193 139.805 84.8676 139.805 83.9673C139.805 83.067 140.11 82.3154 140.711 81.6959C141.313 81.0764 142.054 80.7543 142.911 80.7543C143.266 80.7543 143.595 80.8121 143.884 80.9277C144.172 81.0434 144.436 81.2251 144.683 81.4729V75.6828L146.224 75.5176L146.232 75.5258ZM143.043 82.1832C142.573 82.1832 142.17 82.3567 141.84 82.7118C141.51 83.0587 141.346 83.4883 141.346 83.9838C141.346 84.4794 141.51 84.9089 141.84 85.2558C142.17 85.6027 142.565 85.7762 143.043 85.7762C143.521 85.7762 143.908 85.6027 144.238 85.2558C144.559 84.9089 144.724 84.4877 144.724 83.9838C144.724 83.48 144.559 83.0587 144.238 82.7118C143.916 82.3649 143.513 82.1832 143.043 82.1832Z" fill="black"/>
<path d="M149.633 77.8867H151.149V79.5552H149.633V77.8867ZM151.157 80.8107V86.9642L149.641 87.1046V80.9759L151.157 80.8107Z" fill="black"/>
<path d="M159.025 82.9561V86.9539L157.632 87.1108V86.5161C157.459 86.7308 157.253 86.896 157.014 87.0117C156.775 87.1273 156.495 87.1769 156.19 87.1769C155.622 87.1769 155.144 86.9786 154.756 86.5739C154.369 86.1774 154.18 85.6736 154.18 85.0789C154.18 84.4511 154.369 83.939 154.756 83.5343C155.144 83.1378 155.646 82.9396 156.273 82.9396C156.553 82.9396 156.808 82.9809 157.023 83.0718C157.245 83.1626 157.426 83.2948 157.575 83.4682V82.9231C157.575 82.634 157.492 82.4275 157.336 82.3201C157.179 82.2045 156.891 82.1467 156.47 82.1467C156.231 82.1467 155.992 82.1715 155.745 82.2128C155.506 82.2541 155.259 82.3201 155.012 82.4027L155.374 80.9408C155.704 80.8912 155.993 80.8582 156.24 80.8416C156.487 80.8251 156.709 80.8086 156.899 80.8086C157.673 80.8086 158.226 80.949 158.547 81.2381C158.868 81.5272 159.033 82.0971 159.033 82.9561H159.025ZM156.611 84.1621C156.339 84.1621 156.108 84.2447 155.927 84.4099C155.745 84.575 155.655 84.7815 155.655 85.0128C155.655 85.2441 155.745 85.4588 155.927 85.6158C156.108 85.781 156.339 85.8636 156.619 85.8636C156.899 85.8636 157.121 85.781 157.303 85.6158C157.484 85.4506 157.575 85.2524 157.575 85.0128C157.575 84.7733 157.484 84.575 157.303 84.4099C157.121 84.2447 156.891 84.1621 156.619 84.1621H156.611Z" fill="black"/>
<path d="M168.75 75.7148H174.247L174.659 77.2346H170.431V80.3568H173.802V81.9344H170.431V85.3623H175.136L174.535 86.9646H168.742V75.7148H168.75Z" fill="black"/>
<path d="M182.172 81.6216C182.411 81.3325 182.674 81.1178 182.963 80.9691C183.259 80.8204 183.581 80.7461 183.935 80.7461C184.528 80.7461 184.965 80.9443 185.254 81.3325C185.542 81.7208 185.69 82.3237 185.69 83.1167V86.9574L184.166 87.0979V83.447C184.166 83.0671 184.1 82.778 183.96 82.5715C183.82 82.365 183.622 82.2659 183.367 82.2659C183.062 82.2659 182.823 82.3815 182.666 82.6045C182.51 82.8276 182.427 83.1662 182.427 83.604V86.9574L180.903 87.0979V83.447C180.903 83.0671 180.837 82.778 180.705 82.5715C180.573 82.365 180.375 82.2659 180.12 82.2659C179.815 82.2659 179.576 82.3815 179.42 82.6045C179.263 82.8276 179.181 83.1662 179.181 83.604V86.9574L177.656 87.0979V80.9691L179.181 80.8039V81.4977C179.403 81.2582 179.642 81.0765 179.914 80.9443C180.186 80.8122 180.441 80.7461 180.689 80.7461C181.035 80.7461 181.331 80.8204 181.579 80.9609C181.826 81.1013 182.023 81.3243 182.172 81.6134V81.6216Z" fill="black"/>
<path d="M190.481 86.4347V89.7055L188.957 89.8542V80.975L190.481 80.8098V81.5036C190.72 81.2558 190.992 81.0658 191.305 80.9419C191.619 80.818 191.965 80.752 192.36 80.752C193.209 80.752 193.926 81.0576 194.503 81.6688C195.079 82.28 195.376 83.0316 195.376 83.932C195.376 84.8323 195.071 85.5756 194.47 86.2034C193.868 86.8311 193.135 87.145 192.27 87.145C191.899 87.145 191.577 87.0872 191.281 86.9716C190.992 86.8559 190.729 86.6742 190.49 86.4264L190.481 86.4347ZM192.146 82.1231C191.676 82.1231 191.272 82.2965 190.943 82.6434C190.613 82.9903 190.448 83.4199 190.448 83.9154C190.448 84.411 190.613 84.8405 190.943 85.1874C191.272 85.5344 191.676 85.7078 192.146 85.7078C192.616 85.7078 193.019 85.5344 193.341 85.1874C193.662 84.8405 193.827 84.4193 193.827 83.9154C193.827 83.4116 193.662 82.9821 193.341 82.6352C193.019 82.2883 192.616 82.1148 192.146 82.1148V82.1231Z" fill="black"/>
<path d="M199.93 75.5258V86.9656L198.414 87.106V75.6828L199.93 75.5176V75.5258Z" fill="black"/>
<path d="M206.154 80.7036C207.044 80.7036 207.802 81.0175 208.42 81.6452C209.046 82.2729 209.351 83.0328 209.351 83.9249C209.351 84.8169 209.038 85.5686 208.42 86.1963C207.802 86.8241 207.044 87.1379 206.154 87.1379C205.264 87.1379 204.506 86.8241 203.888 86.2046C203.27 85.5851 202.965 84.8252 202.965 83.9249C202.965 83.0246 203.278 82.2647 203.896 81.6369C204.514 81.0092 205.272 80.6953 206.154 80.6953V80.7036ZM206.154 82.1243C205.692 82.1243 205.305 82.2977 204.984 82.6446C204.662 82.9915 204.506 83.421 204.506 83.9249C204.506 84.4287 204.662 84.85 204.984 85.1969C205.297 85.5438 205.692 85.7172 206.154 85.7172C206.615 85.7172 207.011 85.5438 207.332 85.1886C207.653 84.8335 207.818 84.4122 207.818 83.9249C207.818 83.4376 207.653 83.0081 207.332 82.6529C207.011 82.306 206.615 82.1243 206.154 82.1243Z" fill="black"/>
<path d="M213.015 80.752L214.819 84.7497L216.599 80.785L218.041 81.1897L214.02 89.8212L212.479 89.5982L213.954 86.5173L211.523 81.1567L213.015 80.752Z" fill="black"/>
<path d="M224.99 82.9561V86.9539L223.597 87.1108V86.5161C223.424 86.7308 223.218 86.896 222.979 87.0117C222.74 87.1273 222.46 87.1769 222.155 87.1769C221.587 87.1769 221.109 86.9786 220.721 86.5739C220.334 86.1774 220.145 85.6736 220.145 85.0789C220.145 84.4511 220.334 83.939 220.721 83.5343C221.109 83.1378 221.611 82.9396 222.238 82.9396C222.518 82.9396 222.773 82.9809 222.987 83.0718C223.21 83.1626 223.391 83.2948 223.539 83.4682V82.9231C223.539 82.634 223.457 82.4275 223.3 82.3201C223.144 82.2045 222.856 82.1467 222.435 82.1467C222.196 82.1467 221.957 82.1715 221.71 82.2128C221.471 82.2541 221.224 82.3201 220.977 82.4027L221.339 80.9408C221.669 80.8912 221.957 80.8582 222.205 80.8416C222.452 80.8251 222.674 80.8086 222.864 80.8086C223.638 80.8086 224.19 80.949 224.512 81.2381C224.833 81.5272 224.998 82.0971 224.998 82.9561H224.99ZM222.575 84.1621C222.303 84.1621 222.073 84.2447 221.891 84.4099C221.71 84.575 221.62 84.7815 221.62 85.0128C221.62 85.2441 221.71 85.4588 221.891 85.6158C222.073 85.781 222.303 85.8636 222.584 85.8636C222.864 85.8636 223.086 85.781 223.268 85.6158C223.449 85.4506 223.539 85.2524 223.539 85.0128C223.539 84.7733 223.449 84.575 223.268 84.4099C223.086 84.2447 222.856 84.1621 222.584 84.1621H222.575Z" fill="black"/>
<path d="M229.721 75.5293V81.4928C229.935 81.2533 230.19 81.0716 230.479 80.9394C230.767 80.8155 231.072 80.7495 231.402 80.7495C232.308 80.7495 233.074 81.0551 233.684 81.6746C234.302 82.294 234.607 83.0539 234.607 83.9625C234.607 84.8711 234.302 85.631 233.692 86.2339C233.083 86.8369 232.316 87.1425 231.402 87.1425C230.306 87.1425 229.498 86.8287 228.971 86.1927C228.443 85.5567 228.18 84.582 228.18 83.2604V75.678L229.721 75.5293ZM231.369 82.1867C230.899 82.1867 230.503 82.3601 230.174 82.707C229.852 83.0539 229.688 83.4834 229.688 83.979C229.688 84.4746 229.852 84.9041 230.174 85.251C230.495 85.598 230.899 85.7714 231.369 85.7714C231.838 85.7714 232.242 85.598 232.572 85.251C232.901 84.9041 233.066 84.4829 233.066 83.979C233.066 83.4752 232.901 83.0539 232.572 82.707C232.242 82.3601 231.838 82.1784 231.369 82.1784V82.1867Z" fill="black"/>
<path d="M239.145 75.5258V86.9656L237.629 87.106V75.6828L239.145 75.5176V75.5258Z" fill="black"/>
<path d="M248.052 82.5267L244.064 85.1121C244.212 85.3268 244.385 85.4837 244.591 85.5911C244.797 85.6985 245.036 85.7481 245.308 85.7481C245.621 85.7481 245.935 85.6737 246.248 85.525C246.553 85.3764 246.841 85.1616 247.113 84.8725L247.649 86.1445C247.335 86.4667 246.973 86.7144 246.553 86.8962C246.132 87.0696 245.704 87.1605 245.259 87.1605C244.41 87.1605 243.693 86.8466 243.108 86.2106C242.523 85.5746 242.227 84.8064 242.227 83.8896C242.227 82.9728 242.523 82.2542 243.116 81.643C243.71 81.0317 244.443 80.7344 245.308 80.7344C245.86 80.7344 246.38 80.8913 246.857 81.2052C247.335 81.5191 247.739 81.9651 248.052 82.535V82.5267ZM246.264 82.3285C246.116 82.2129 245.959 82.122 245.795 82.0642C245.63 82.0064 245.457 81.9816 245.275 81.9816C244.806 81.9816 244.41 82.1468 244.081 82.4689C243.759 82.7911 243.594 83.1875 243.594 83.6501C243.594 83.7244 243.594 83.7905 243.603 83.8648C243.611 83.9392 243.619 84.0135 243.636 84.1044L246.256 82.3285H246.264Z" fill="black"/>
<path d="M67.6016 53.3086H74.276L74.7787 55.1588H69.6451V58.95H73.7404V60.8663H69.6451V65.0292H75.3637L74.6386 66.9785H67.6016V53.3169V53.3086Z" fill="black"/>
<path d="M84.3203 53.3086H87.468C89.7588 53.3086 91.5551 53.9198 92.8653 55.1505C94.1754 56.3812 94.8264 58.0414 94.8264 60.1559C94.8264 61.304 94.5874 62.3696 94.1178 63.3607C93.6481 64.3519 92.9971 65.1448 92.1731 65.7395C91.5716 66.1773 90.8712 66.4912 90.0801 66.6894C89.2891 66.8876 88.3085 66.9868 87.1467 66.9868H84.3203V53.3251V53.3086ZM86.3638 55.1175V65.1283H87.4845C89.182 65.1283 90.4921 64.6988 91.3985 63.8481C92.3049 62.9973 92.7581 61.7583 92.7581 60.1477C92.7581 58.537 92.3132 57.3807 91.415 56.4721C90.5168 55.5635 89.2973 55.1175 87.7399 55.1175H86.3721H86.3638Z" fill="black"/>
<path d="M103.559 53.3086H112.252V55.2579H108.799V66.9702L106.764 67.1354V55.2579H103.031L103.559 53.3086Z" fill="black"/>
<path d="M121.293 53.3086H127.967L128.47 55.1588H123.345V58.95H127.44V60.8663H123.345V65.0292H129.063L128.338 66.9785H121.301V53.3169L121.293 53.3086Z" fill="black"/>
<path d="M146.328 53.3417L146.658 55.4232C146.32 55.2993 145.982 55.2002 145.628 55.1423C145.282 55.0763 144.927 55.0432 144.581 55.0432C143.131 55.0432 141.92 55.514 140.964 56.4639C140.008 57.4138 139.522 58.6032 139.522 60.0321C139.522 61.5437 140.033 62.7909 141.054 63.7655C142.076 64.7402 143.386 65.2275 145.001 65.2275C145.257 65.2275 145.521 65.211 145.793 65.1697C146.064 65.1284 146.361 65.0623 146.674 64.9797L146.254 67.0447C146.254 67.0447 146.188 67.0612 146.147 67.0612C145.669 67.1273 145.315 67.152 145.076 67.152C142.768 67.152 140.923 66.5078 139.53 65.211C138.146 63.9142 137.445 62.1962 137.445 60.0486C137.445 58.0498 138.096 56.3978 139.406 55.0928C140.717 53.7877 142.389 53.127 144.425 53.127C144.614 53.127 144.804 53.127 144.985 53.1435C145.166 53.1517 145.339 53.1683 145.504 53.1848C145.619 53.2013 145.793 53.2343 146.031 53.2839C146.163 53.3087 146.262 53.3252 146.32 53.3417H146.328Z" fill="black"/>
<path d="M158.364 53.1094V58.9408H165.566V53.3076L167.585 53.1094V66.9693L165.566 67.1345V60.9314H158.364V66.9693L156.312 67.1345V53.3076L158.364 53.1094Z" fill="black"/>
<path d="M220.643 0.0117188L220.717 1.03593H217.611V11.2698L216.531 11.4102V1.03593H213.293L213.573 0.0117188H220.643Z" fill="black"/>
<path d="M227.69 9.41018L232.526 -0.220703L233.944 11.2686L232.848 11.409L231.876 2.94279L227.648 11.3843L223.487 2.94279L222.482 11.409L221.477 11.2686L222.894 -0.220703L227.698 9.41018H227.69Z" fill="black"/>
</g>
<defs>
<clipPath id="clip0_8255_10573">
<rect width="279" height="90" fill="white"/>
</clipPath>
</defs>
</svg>
