<svg width="24" height="24" viewBox="0 0 24 24" fill="none" xmlns="http://www.w3.org/2000/svg">
<g id="file-branch">
<path id="Icon" d="M9.06562 19.9204C9.47984 19.9204 9.81562 19.5846 9.81562 19.1704C9.81562 18.7562 9.47984 18.4204 9.06562 18.4204V19.9204ZM4.26621 15.9706L3.51621 15.9706L4.26621 15.9706ZM5.01562 2.40036C5.01561 1.98614 4.67981 1.65037 4.26559 1.65039C3.85138 1.65041 3.51561 1.98621 3.51562 2.40042L5.01562 2.40036ZM9.06562 8.06726C9.47984 8.06726 9.81562 7.73147 9.81562 7.31726C9.81562 6.90305 9.47984 6.56726 9.06562 6.56726V8.06726ZM18.6656 9.86706L18.6656 9.11706L18.6656 9.86706ZM13.8656 9.86704L13.8656 10.617H13.8656L13.8656 9.86704ZM19.7325 2.40039L20.4825 2.40041C20.4825 2.20149 20.4034 2.01072 20.2628 1.87007C20.1221 1.72941 19.9314 1.65039 19.7325 1.65039V2.40039ZM19.7323 8.80042L20.4823 8.80043V8.80043L19.7323 8.80042ZM12.799 8.80036L12.049 8.80036V8.80036L12.799 8.80036ZM12.799 4.53372L12.3007 3.97317C12.1406 4.1155 12.049 4.31949 12.049 4.53372L12.799 4.53372ZM15.199 2.40039V1.65039C15.0153 1.65039 14.838 1.7178 14.7007 1.83984L15.199 2.40039ZM18.6656 21.6004L18.6656 20.8504L18.6656 21.6004ZM13.8656 21.6004L13.8656 22.3504L13.8656 21.6004ZM19.7325 14.1337L20.4825 14.1337C20.4825 13.9348 20.4034 13.7441 20.2628 13.6034C20.1221 13.4627 19.9314 13.3837 19.7325 13.3837V14.1337ZM19.7323 20.5337L20.4823 20.5338V20.5338L19.7323 20.5337ZM12.799 20.5337L12.049 20.5337V20.5337L12.799 20.5337ZM12.799 16.2671L12.3007 15.7065C12.1406 15.8488 12.049 16.0528 12.049 16.267L12.799 16.2671ZM15.199 14.1337V13.3837C15.0153 13.3837 14.838 13.4511 14.7007 13.5732L15.199 14.1337ZM9.06562 18.4204H7.46621V19.9204H9.06562V18.4204ZM5.01621 15.9705L5.01584 7.31723L3.51584 7.31729L3.51621 15.9706L5.01621 15.9705ZM5.01584 7.31723L5.01562 2.40036L3.51562 2.40042L3.51584 7.31729L5.01584 7.31723ZM9.06562 6.56726H4.26584V8.06726H9.06562V6.56726ZM7.46621 18.4204C6.11315 18.4204 5.01627 17.3236 5.01621 15.9705L3.51621 15.9706C3.5163 18.1521 5.28475 19.9204 7.46621 19.9204V18.4204ZM18.6656 9.11706L13.8656 9.11704L13.8656 10.617L18.6656 10.6171L18.6656 9.11706ZM18.9825 2.40037L18.9823 8.8004L20.4823 8.80043L20.4825 2.40041L18.9825 2.40037ZM18.6656 10.6171C19.6689 10.6171 20.4823 9.80374 20.4823 8.80043L18.9823 8.8004C18.9823 8.97528 18.8405 9.11706 18.6656 9.11706L18.6656 10.6171ZM12.049 8.80036C12.049 9.80368 12.8623 10.617 13.8656 10.617L13.8656 9.11704C13.6907 9.11704 13.549 8.97526 13.549 8.80037L12.049 8.80036ZM13.549 8.80037L13.549 4.53373L12.049 4.53372L12.049 8.80036L13.549 8.80037ZM15.199 3.15039H19.7325V1.65039H15.199V3.15039ZM14.7007 1.83984L12.3007 3.97317L13.2973 5.09428L15.6972 2.96094L14.7007 1.83984ZM18.6656 20.8504L13.8656 20.8504L13.8656 22.3504L18.6656 22.3504L18.6656 20.8504ZM18.9825 14.1337L18.9823 20.5337L20.4823 20.5338L20.4825 14.1337L18.9825 14.1337ZM18.6656 22.3504C19.6689 22.3504 20.4823 21.5371 20.4823 20.5338L18.9823 20.5337C18.9823 20.7086 18.8405 20.8504 18.6656 20.8504L18.6656 22.3504ZM12.049 20.5337C12.049 21.537 12.8623 22.3504 13.8656 22.3504L13.8656 20.8504C13.6907 20.8504 13.549 20.7086 13.549 20.5337L12.049 20.5337ZM13.549 20.5337L13.549 16.2671L12.049 16.267L12.049 20.5337L13.549 20.5337ZM15.199 14.8837H19.7325V13.3837H15.199V14.8837ZM14.7007 13.5732L12.3007 15.7065L13.2973 16.8276L15.6972 14.6943L14.7007 13.5732Z" fill="#7D7D7D"/>
</g>
</svg>
