<svg width="20" height="20" viewBox="0 0 20 20" fill="none" xmlns="http://www.w3.org/2000/svg">
<g id="message-chat-01">
<path id="Icon" d="M4.49987 9C4.49987 5.68629 7.18594 3 10.4994 3C13.8128 3 16.4989 5.68629 16.4989 9C16.4989 9.86252 16.3169 10.6825 15.9892 11.4237L16.5 14.9994L13.4359 14.2334C12.5679 14.7215 11.5662 15 10.4994 15M3.00071 12.75C3.00071 13.2891 3.11444 13.8016 3.3192 14.2648L3 16.4996L4.91486 16.0208C5.45732 16.326 6.08336 16.5 6.75004 16.5C8.82074 16.5 10.4994 14.8211 10.4994 12.75C10.4994 10.6789 8.82074 9 6.75004 9C4.67934 9 3.00071 10.6789 3.00071 12.75Z" stroke="#29339B" stroke-width="1.35" stroke-linecap="round" stroke-linejoin="round"/>
</g>
</svg>
