<svg width="21" height="21" viewBox="0 0 21 21" fill="none" xmlns="http://www.w3.org/2000/svg">
<path d="M14.4199 1.60254L19.6945 1.60254M19.6945 1.60254L19.6969 6.26342M19.6945 1.60254L13.702 7.59503M18.5818 17.2298C18.5818 17.2298 17.4396 18.3517 17.1596 18.6806C16.7036 19.1672 16.1664 19.397 15.462 19.397C15.3943 19.397 15.3221 19.397 15.2543 19.3925C13.9134 19.3069 12.6673 18.7842 11.7327 18.3382C9.17726 17.1036 6.93334 15.3509 5.06868 13.1296C3.52909 11.2777 2.49969 9.56557 1.81794 7.72725C1.39805 6.60533 1.24454 5.73123 1.31227 4.90668C1.35741 4.37952 1.56059 3.94247 1.93532 3.56849L3.47491 2.03205C3.69614 1.82479 3.93092 1.71215 4.16118 1.71215C4.44562 1.71215 4.67588 1.88336 4.82036 2.02754C4.82487 2.03205 4.82939 2.03656 4.8339 2.04106C5.10931 2.29789 5.37118 2.56372 5.64659 2.84758C5.78655 2.99176 5.93103 3.13595 6.07551 3.28463L7.30808 4.51469C7.78666 4.99229 7.78666 5.43385 7.30808 5.91145C7.17715 6.04212 7.05073 6.17278 6.9198 6.29894C6.54054 6.68643 6.83847 6.38912 6.44567 6.74056C6.43664 6.74957 6.42761 6.75408 6.4231 6.76309C6.03481 7.15058 6.10705 7.52906 6.18832 7.78588C6.19284 7.7994 6.19735 7.81292 6.20187 7.82643C6.52242 8.60141 6.97392 9.33133 7.66018 10.2009L7.6647 10.2054C8.91082 11.7374 10.2247 12.9314 11.6739 13.846C11.8591 13.9632 12.0487 14.0578 12.2293 14.1479C12.3918 14.229 12.5453 14.3056 12.6763 14.3867C12.6943 14.3957 12.7124 14.4093 12.7304 14.4183C12.8839 14.4949 13.0284 14.5309 13.1774 14.5309C13.5522 14.5309 13.7869 14.2966 13.8637 14.22L14.7487 13.3368C14.9022 13.1836 15.146 12.9989 15.4304 12.9989C15.7103 12.9989 15.9406 13.1746 16.0806 13.3278C16.0851 13.3323 16.0851 13.3323 16.0896 13.3368L18.5773 15.8195C19.0424 16.2791 18.5818 17.2298 18.5818 17.2298Z" stroke="#29339B" stroke-width="1.44" stroke-linecap="round" stroke-linejoin="round"/>
</svg>
