<svg width="24" height="25" viewBox="0 0 24 25" fill="none" xmlns="http://www.w3.org/2000/svg">
<g id="password-02">
<path id="Icon" d="M6.52879 9.80234H6.66882M11.9999 9.80234H12.1399M17.3294 9.80234H17.4694M11.3999 15.2023H4.53324C3.35503 15.2023 2.3999 14.2472 2.3999 13.069V6.53568C2.3999 5.35747 3.35503 4.40234 4.53324 4.40234H19.4666C20.6448 4.40234 21.5999 5.35747 21.5999 6.53568V9.80234M15.4111 14.0974L16.8011 13.4024C17.8146 12.8957 19.0076 12.8957 20.0211 13.4024L21.4111 14.0974C21.4111 14.0974 21.4111 16.2874 21.4111 17.4424C21.4111 18.5974 20.3434 19.3771 18.4111 20.5974C16.4788 19.3771 15.4111 18.3474 15.4111 17.4424V14.0974Z" stroke="#7D7D7D" stroke-width="1.5" stroke-linecap="round" stroke-linejoin="round"/>
</g>
</svg>
