<svg width="22" height="19" viewBox="0 0 22 19" fill="none" xmlns="http://www.w3.org/2000/svg">
<path d="M5.52879 6.80234H5.66882M10.9999 6.80234H11.1399M16.3294 6.80234H16.4694M10.3999 12.2023H3.53324C2.35503 12.2023 1.3999 11.2472 1.3999 10.069V3.53568C1.3999 2.35747 2.35503 1.40234 3.53324 1.40234H18.4666C19.6448 1.40234 20.5999 2.35747 20.5999 3.53568V6.80234M14.4111 11.0974L15.8011 10.4024C16.8146 9.89565 18.0076 9.89565 19.0211 10.4024L20.4111 11.0974C20.4111 11.0974 20.4111 13.2874 20.4111 14.4424C20.4111 15.5974 19.3434 16.3771 17.4111 17.5974C15.4788 16.3771 14.4111 15.3474 14.4111 14.4424V11.0974Z" stroke="#007143" stroke-width="1.5" stroke-linecap="round" stroke-linejoin="round"/>
</svg>
