<svg width="22" height="22" viewBox="0 0 22 22" fill="none" xmlns="http://www.w3.org/2000/svg">
<path d="M11.8695 5.32632C13.0694 5.52742 14.1594 6.09414 15.0295 6.9625C15.8996 7.83087 16.4629 8.91861 16.669 10.116M12.0527 1.40039C14.1869 1.76145 16.1332 2.77149 17.6812 4.3117C19.2291 5.85647 20.2366 7.79887 20.5984 9.92865M18.9314 18.4021C18.9314 18.4021 17.7727 19.5401 17.4888 19.8737C17.0262 20.3673 16.4813 20.6004 15.7668 20.6004C15.6981 20.6004 15.6248 20.6004 15.5562 20.5958C14.196 20.509 12.932 19.9788 11.984 19.5264C9.39188 18.2741 7.11577 16.4962 5.22436 14.243C3.66268 12.3646 2.61851 10.6279 1.92698 8.76321C1.50106 7.62519 1.34535 6.73854 1.41405 5.90217C1.45985 5.36744 1.66593 4.92412 2.04605 4.54478L3.60772 2.9863C3.83213 2.77606 4.07027 2.6618 4.30384 2.6618C4.59236 2.6618 4.82592 2.83547 4.97247 2.98173C4.97705 2.9863 4.98163 2.99087 4.98621 2.99544C5.26557 3.25595 5.5312 3.5256 5.81056 3.81353C5.95253 3.95978 6.09908 4.10603 6.24563 4.25685L7.49589 5.50455C7.98133 5.98901 7.98133 6.4369 7.49589 6.92136C7.36308 7.0539 7.23484 7.18644 7.10203 7.31441C6.71734 7.70746 7.01954 7.40587 6.6211 7.76236C6.61194 7.7715 6.60279 7.77607 6.59821 7.78521C6.20435 8.17826 6.27763 8.56217 6.36006 8.82268C6.36464 8.83639 6.36922 8.8501 6.3738 8.86381C6.69896 9.64991 7.15693 10.3903 7.85304 11.2724L7.85762 11.277C9.12162 12.8309 10.4543 14.042 11.9244 14.9698C12.1122 15.0886 12.3045 15.1846 12.4877 15.276C12.6526 15.3583 12.8083 15.436 12.9411 15.5182C12.9594 15.5274 12.9777 15.5411 12.996 15.5502C13.1518 15.6279 13.2983 15.6645 13.4494 15.6645C13.8295 15.6645 14.0677 15.4268 14.1455 15.3491L15.0432 14.4533C15.1989 14.2979 15.4462 14.1105 15.7348 14.1105C16.0187 14.1105 16.2523 14.2887 16.3942 14.4441C16.3988 14.4487 16.3988 14.4487 16.4034 14.4533L18.9268 16.9715C19.3985 17.4377 18.9314 18.4021 18.9314 18.4021Z" stroke="white" stroke-width="1.5" stroke-linecap="round" stroke-linejoin="round"/>
</svg>
