<svg width="24" height="24" viewBox="0 0 24 24" fill="none" xmlns="http://www.w3.org/2000/svg">
<path d="M12.8695 6.32632C14.0694 6.52742 15.1594 7.09414 16.0295 7.9625C16.8996 8.83087 17.4629 9.91861 17.669 11.116M13.0527 2.40039C15.1869 2.76145 17.1332 3.77149 18.6812 5.3117C20.2291 6.85647 21.2366 8.79887 21.5984 10.9286M19.9314 19.4021C19.9314 19.4021 18.7727 20.5401 18.4888 20.8737C18.0262 21.3673 17.4813 21.6004 16.7668 21.6004C16.6981 21.6004 16.6248 21.6004 16.5562 21.5958C15.196 21.509 13.932 20.9788 12.984 20.5264C10.3919 19.2741 8.11577 17.4962 6.22436 15.243C4.66268 13.3646 3.61851 11.6279 2.92698 9.76321C2.50106 8.62519 2.34535 7.73854 2.41405 6.90217C2.45985 6.36744 2.66593 5.92412 3.04605 5.54478L4.60772 3.9863C4.83213 3.77606 5.07027 3.6618 5.30384 3.6618C5.59236 3.6618 5.82592 3.83547 5.97247 3.98173C5.97705 3.9863 5.98163 3.99087 5.98621 3.99544C6.26557 4.25595 6.5312 4.5256 6.81056 4.81353C6.95253 4.95978 7.09908 5.10603 7.24563 5.25685L8.49589 6.50455C8.98133 6.98901 8.98133 7.4369 8.49589 7.92136C8.36308 8.0539 8.23484 8.18644 8.10203 8.31441C7.71734 8.70746 8.01954 8.40587 7.6211 8.76236C7.61194 8.7715 7.60279 8.77607 7.59821 8.78521C7.20435 9.17826 7.27763 9.56217 7.36006 9.82268C7.36464 9.83639 7.36922 9.8501 7.3738 9.86381C7.69896 10.6499 8.15693 11.3903 8.85304 12.2724L8.85762 12.277C10.1216 13.8309 11.4543 15.042 12.9244 15.9698C13.1122 16.0886 13.3045 16.1846 13.4877 16.276C13.6526 16.3583 13.8083 16.436 13.9411 16.5182C13.9594 16.5274 13.9777 16.5411 13.996 16.5502C14.1518 16.6279 14.2983 16.6645 14.4494 16.6645C14.8295 16.6645 15.0677 16.4268 15.1455 16.3491L16.0432 15.4533C16.1989 15.2979 16.4462 15.1105 16.7348 15.1105C17.0187 15.1105 17.2523 15.2887 17.3942 15.4441C17.3988 15.4487 17.3988 15.4487 17.4034 15.4533L19.9268 17.9715C20.3985 18.4377 19.9314 19.4021 19.9314 19.4021Z" stroke="white" stroke-width="1.5" stroke-linecap="round" stroke-linejoin="round"/>
</svg>
