<svg width="19" height="19" viewBox="0 0 19 19" fill="none" xmlns="http://www.w3.org/2000/svg">
<path d="M3.40141 8.79961C3.40141 4.82316 6.62469 1.59961 10.6008 1.59961C14.5769 1.59961 17.8002 4.82316 17.8002 8.79961C17.8002 9.83463 17.5818 10.8186 17.1886 11.7081L17.8016 15.9989L14.1247 15.0796C13.0831 15.6655 11.8809 15.9996 10.6008 15.9996M1.60242 13.2996C1.60242 13.9465 1.73889 14.5615 1.98461 15.1174L1.60156 17.7992L3.8994 17.2246C4.55035 17.5908 5.3016 17.7996 6.10161 17.7996C8.58645 17.7996 10.6008 15.7849 10.6008 13.2996C10.6008 10.8143 8.58645 8.79961 6.10161 8.79961C3.61677 8.79961 1.60242 10.8143 1.60242 13.2996Z" stroke="white" stroke-width="1.35" stroke-linecap="round" stroke-linejoin="round"/>
</svg>
