<svg width="16" height="16" viewBox="0 0 16 16" fill="none" xmlns="http://www.w3.org/2000/svg">
<path d="M2.49987 7C2.49987 3.68629 5.18594 1 8.49937 1C11.8128 1 14.4989 3.68629 14.4989 7C14.4989 7.86252 14.3169 8.68253 13.9892 9.42372L14.5 12.9994L11.4359 12.2334C10.5679 12.7215 9.56616 13 8.49937 13M1.00071 10.75C1.00071 11.2891 1.11444 11.8016 1.3192 12.2648L1 14.4996L2.91486 14.0208C3.45732 14.326 4.08336 14.5 4.75004 14.5C6.82074 14.5 8.49937 12.8211 8.49937 10.75C8.49937 8.67893 6.82074 7 4.75004 7C2.67934 7 1.00071 8.67893 1.00071 10.75Z" stroke="white" stroke-width="1.35" stroke-linecap="round" stroke-linejoin="round"/>
</svg>
