<svg width="17" height="17" viewBox="0 0 17 17" fill="none" xmlns="http://www.w3.org/2000/svg">
<g id="Socials">
<path id="WhatsApp" d="M14.0871 2.52414C15.5871 4.02414 16.5156 5.98842 16.5156 8.13128C16.5156 12.4884 12.8728 16.0598 8.47991 16.0598C7.15848 16.0598 5.87277 15.7027 4.6942 15.0956L0.515625 16.167L1.62277 12.0598C0.944196 10.8813 0.551339 9.52413 0.551339 8.09556C0.551339 3.73842 4.12277 0.166992 8.47991 0.166992C10.6228 0.166992 12.6228 1.02414 14.0871 2.52414ZM8.47991 14.7027C12.1228 14.7027 15.1585 11.7384 15.1585 8.13128C15.1585 6.34556 14.4085 4.70271 13.1585 3.45271C11.9085 2.20271 10.2656 1.52413 8.51562 1.52413C4.87277 1.52413 1.90848 4.48842 1.90848 8.09556C1.90848 9.34556 2.26562 10.5598 2.90848 11.6313L3.08705 11.8813L2.40848 14.3098L4.90848 13.6313L5.12277 13.7741C6.15848 14.3813 7.30134 14.7027 8.47991 14.7027ZM12.1228 9.77413C12.3013 9.88128 12.4442 9.91699 12.4799 10.0241C12.5513 10.0956 12.5513 10.4884 12.3728 10.9527C12.1942 11.417 11.4085 11.8456 11.0513 11.8813C10.4085 11.9884 9.90848 11.9527 8.65848 11.3813C6.65848 10.5241 5.37277 8.52413 5.26562 8.41699C5.15848 8.27413 4.47991 7.34556 4.47991 6.34556C4.47991 5.38128 4.97991 4.91699 5.15848 4.70271C5.33705 4.48842 5.55134 4.45271 5.6942 4.45271C5.80134 4.45271 5.9442 4.45271 6.05134 4.45271C6.1942 4.45271 6.33705 4.41699 6.51562 4.80985C6.65848 5.20271 7.08705 6.16699 7.12277 6.27414C7.15848 6.38128 7.1942 6.48842 7.12277 6.63128C6.76562 7.38128 6.33705 7.34556 6.55134 7.70271C7.33705 9.02413 8.08705 9.48842 9.26562 10.0598C9.4442 10.167 9.55134 10.1313 9.6942 10.0241C9.80134 9.88128 10.1942 9.41699 10.3013 9.23842C10.4442 9.02413 10.5871 9.05985 10.7656 9.13128C10.9442 9.20271 11.9085 9.66699 12.1228 9.77413Z" fill="#29339B"/>
</g>
</svg>
