<svg width="17" height="17" viewBox="0 0 17 17" fill="none" xmlns="http://www.w3.org/2000/svg">
<path d="M14.421 2.52414C15.921 4.02414 16.8496 5.98842 16.8496 8.13128C16.8496 12.4884 13.2068 16.0598 8.8139 16.0598C7.49247 16.0598 6.20675 15.7027 5.02818 15.0956L0.849609 16.167L1.95675 12.0598C1.27818 10.8813 0.885324 9.52413 0.885324 8.09556C0.885324 3.73842 4.45675 0.166992 8.8139 0.166992C10.9568 0.166992 12.9568 1.02414 14.421 2.52414ZM8.8139 14.7027C12.4568 14.7027 15.4925 11.7384 15.4925 8.13128C15.4925 6.34556 14.7425 4.70271 13.4925 3.45271C12.2425 2.20271 10.5996 1.52413 8.84961 1.52413C5.20675 1.52413 2.24247 4.48842 2.24247 8.09556C2.24247 9.34556 2.59961 10.5598 3.24247 11.6313L3.42104 11.8813L2.74247 14.3098L5.24247 13.6313L5.45675 13.7741C6.49247 14.3813 7.63532 14.7027 8.8139 14.7027ZM12.4568 9.77413C12.6353 9.88128 12.7782 9.91699 12.8139 10.0241C12.8853 10.0956 12.8853 10.4884 12.7068 10.9527C12.5282 11.417 11.7425 11.8456 11.3853 11.8813C10.7425 11.9884 10.2425 11.9527 8.99247 11.3813C6.99247 10.5241 5.70675 8.52413 5.59961 8.41699C5.49247 8.27413 4.8139 7.34556 4.8139 6.34556C4.8139 5.38128 5.3139 4.91699 5.49247 4.70271C5.67104 4.48842 5.88532 4.45271 6.02818 4.45271C6.13532 4.45271 6.27818 4.45271 6.38532 4.45271C6.52818 4.45271 6.67104 4.41699 6.84961 4.80985C6.99247 5.20271 7.42104 6.16699 7.45675 6.27414C7.49247 6.38128 7.52818 6.48842 7.45675 6.63128C7.09961 7.38128 6.67104 7.34556 6.88532 7.70271C7.67104 9.02413 8.42104 9.48842 9.59961 10.0598C9.77818 10.167 9.88532 10.1313 10.0282 10.0241C10.1353 9.88128 10.5282 9.41699 10.6353 9.23842C10.7782 9.02413 10.921 9.05985 11.0996 9.13128C11.2782 9.20271 12.2425 9.66699 12.4568 9.77413Z" fill="white"/>
</svg>
