<svg width="30" height="30" viewBox="0 0 30 30" fill="none" xmlns="http://www.w3.org/2000/svg">
<path d="M20.1136 6.68276C20.1136 9.42747 17.7903 11.8748 15 11.8748C12.2097 11.8748 9.88636 9.42747 9.88636 6.68276C9.88636 3.87825 12.2664 1.25 15 1.25C17.7336 1.25 20.1136 3.87825 20.1136 6.68276ZM28.75 22.9631C28.75 24.3195 27.9923 25.7102 25.8427 26.8307C23.6517 27.9727 20.1302 28.7503 15 28.7503C9.86977 28.7503 6.34829 27.9727 4.15731 26.8307C2.00765 25.7102 1.25 24.3195 1.25 22.9631C1.25 21.7905 2.31101 20.3448 4.9243 19.1188C7.4383 17.9394 10.9992 17.176 15 17.176C19.0008 17.176 22.5617 17.9394 25.0757 19.1188C27.689 20.3448 28.75 21.7905 28.75 22.9631Z" stroke="#243771" stroke-width="2.5"/>
</svg>
