<svg width="19" height="19" viewBox="0 0 19 19" fill="none" xmlns="http://www.w3.org/2000/svg">
<path d="M9.05 11.2543C9.52266 11.6438 10.5841 12.3818 11.0874 12.6994C11.2673 12.8133 11.4517 12.9053 11.6272 12.9929C11.7852 13.0717 11.9344 13.1462 12.0617 13.225C12.0793 13.2338 12.0968 13.2469 12.1144 13.2557C12.2636 13.3302 12.404 13.3652 12.5489 13.3652C12.9131 13.3652 13.1414 13.1374 13.216 13.063L14.0763 12.2045C14.2255 12.0555 14.4625 11.876 14.739 11.876C15.0111 11.876 15.2349 12.0468 15.371 12.1957L17.798 14.6178C18.2501 15.0645 17.8024 15.9887 17.8024 15.9887C17.8024 15.9887 16.692 17.0793 16.4199 17.399C15.9766 17.8721 15.4544 18.0954 14.7697 18.0954C14.7039 18.0954 14.6336 18.0954 14.5678 18.0911C13.2643 18.0078 12.053 17.4998 11.1445 17.0662C9.58621 16.3133 7.76965 14.8445 6.46595 13.7071M3.78434 10.8798C2.76287 9.4954 2.02948 8.16162 1.50652 6.75148C1.09835 5.66088 0.949128 4.81118 1.01496 4.00965C1.05885 3.4972 1.25635 3.07235 1.62063 2.70882L3.11723 1.21527C3.33229 1.01379 3.56051 0.904297 3.78434 0.904297C4.06084 0.904297 4.28467 1.07073 4.42512 1.21089L4.43828 1.22403C4.70601 1.47369 4.96056 1.7321 5.22828 2.00803C5.36434 2.14819 5.50478 2.28835 5.64523 2.43289L6.84339 3.6286C7.30861 4.09287 7.30861 4.5221 6.84339 4.98637C6.71611 5.11339 6.59322 5.24041 6.46595 5.36304C6.09728 5.73972 6.38689 5.4507 6.00506 5.79233C5.99628 5.80109 5.9875 5.80547 5.98311 5.81423C5.60567 6.1909 5.67589 6.55882 5.75489 6.80847L5.76806 6.84789C5.97182 7.34051 6.23001 7.8144 6.57085 8.31977M1 17.5793L17.675 0.904297" stroke="#29339B" stroke-width="1.44" stroke-linecap="round" stroke-linejoin="round"/>
</svg>
