<svg width="24" height="25" viewBox="0 0 24 25" fill="none" xmlns="http://www.w3.org/2000/svg">
<g id="users-profiles-03">
<path id="Icon" d="M2.3999 18.7168C3.49855 16.8843 5.90641 15.6301 9.66302 15.6301C13.4196 15.6301 15.8275 16.8843 16.9261 18.7168M17.6211 14.2406C19.6105 15.2352 20.6052 16.2299 21.5999 18.2193M15.5521 6.6376C16.4882 7.14115 17.1245 8.12991 17.1245 9.2673C17.1245 10.3718 16.5244 11.3362 15.6325 11.8522M12.6471 9.26727C12.6471 10.9153 11.3111 12.2513 9.66302 12.2513C8.01496 12.2513 6.67895 10.9153 6.67895 9.26727C6.67895 7.61922 8.01496 6.2832 9.66302 6.2832C11.3111 6.2832 12.6471 7.61922 12.6471 9.26727Z" stroke="#7D7D7D" stroke-width="1.5" stroke-linecap="round"/>
</g>
</svg>
