<svg width="22" height="14" viewBox="0 0 22 14" fill="none" xmlns="http://www.w3.org/2000/svg">
<path d="M1.3999 13.2168C2.49855 11.3843 4.90641 10.1301 8.66302 10.1301C12.4196 10.1301 14.8275 11.3843 15.9261 13.2168M16.6211 8.74056C18.6105 9.73525 19.6052 10.7299 20.5999 12.7193M14.5521 1.1376C15.4882 1.64115 16.1245 2.62991 16.1245 3.7673C16.1245 4.87183 15.5244 5.8362 14.6325 6.35216M11.6471 3.76727C11.6471 5.41533 10.3111 6.75134 8.66302 6.75134C7.01496 6.75134 5.67895 5.41533 5.67895 3.76727C5.67895 2.11922 7.01496 0.783203 8.66302 0.783203C10.3111 0.783203 11.6471 2.11922 11.6471 3.76727Z" stroke="#007143" stroke-width="1.5" stroke-linecap="round"/>
</svg>
