<svg width="99" height="99" viewBox="0 0 99 99" fill="none" xmlns="http://www.w3.org/2000/svg">
<ellipse opacity="0.1" cx="49.5" cy="96.0296" rx="49.5" ry="2.97" fill="#B1B1B1"/>
<path fill-rule="evenodd" clip-rule="evenodd" d="M6.93001 21.7791C6.93001 15.218 12.2489 9.89914 18.81 9.89914C25.3712 9.89914 30.69 15.218 30.69 21.7791C30.69 24.9519 29.4463 27.8341 27.4198 29.9649C27.2725 30.1001 27.1309 30.2416 26.9957 30.3889C24.8649 32.4154 21.9827 33.6591 18.81 33.6591C12.2489 33.6591 6.93001 28.3403 6.93001 21.7791ZM25.2474 34.0567C23.3239 35.0673 21.1337 35.6391 18.81 35.6391C18.4771 35.6391 18.147 35.6274 17.82 35.6043V63.3309C17.82 66.0647 20.0362 68.2809 22.77 68.2809H25.1735V35.0726C25.1735 34.7275 25.1987 34.3883 25.2474 34.0567ZM15.84 35.3202C9.61255 33.9606 4.95001 28.4144 4.95001 21.7791C4.95001 14.1245 11.1553 7.91914 18.81 7.91914C25.4452 7.91914 30.9914 12.5817 32.3511 18.8091H66.8957C70.7231 18.8091 73.8257 21.9118 73.8257 25.7391V28.1426H76.2292C80.0565 28.1426 83.1592 31.2453 83.1592 35.0726V72.6643C83.1592 76.4917 80.0565 79.5943 76.2292 79.5943H32.1035C28.2761 79.5943 25.1735 76.4917 25.1735 72.6643V70.2609H22.77C18.9427 70.2609 15.84 67.1582 15.84 63.3309V35.3202ZM32.6352 20.7891C32.6583 21.1161 32.67 21.4463 32.67 21.7791C32.67 24.1029 32.0982 26.293 31.0875 28.2165C31.4191 28.1678 31.7583 28.1426 32.1035 28.1426H71.8457V25.7391C71.8457 23.0053 69.6295 20.7891 66.8957 20.7891H32.6352ZM28.4151 31.7713C28.5466 31.6448 28.6757 31.5157 28.8022 31.3842C29.6781 30.5997 30.8351 30.1226 32.1035 30.1226H76.2292C78.963 30.1226 81.1792 32.3388 81.1792 35.0726V72.6643C81.1792 75.3981 78.963 77.6143 76.2292 77.6143H32.1035C29.3697 77.6143 27.1535 75.3981 27.1535 72.6643V35.0726C27.1535 33.8042 27.6306 32.6472 28.4151 31.7713ZM83.5662 17.5562C85.0067 17.5562 86.1745 18.7239 86.1745 20.1644C86.1745 21.6049 85.0067 22.7727 83.5662 22.7727H78.2006C76.7601 22.7727 75.5924 21.6049 75.5924 20.1644C75.5924 18.7239 76.7601 17.5562 78.2006 17.5562H83.5662ZM84.1945 20.1644C84.1945 19.8174 83.9132 19.5362 83.5662 19.5362H78.2006C77.8536 19.5362 77.5724 19.8174 77.5724 20.1644C77.5724 20.5114 77.8536 20.7927 78.2006 20.7927L83.5662 20.7927C83.9132 20.7927 84.1945 20.5114 84.1945 20.1644ZM66.5579 46.4466C66.5579 48.3387 65.024 49.8726 63.1319 49.8726C61.2398 49.8726 59.706 48.3387 59.706 46.4466C59.706 44.5545 61.2398 43.0206 63.1319 43.0206C65.024 43.0206 66.5579 44.5545 66.5579 46.4466ZM48.6778 56.847H53.4175C54.6783 55.5375 56.4493 54.7229 58.4106 54.7229H67.9752C71.8029 54.7229 74.9058 57.8259 74.9058 61.6536C74.9058 62.8019 73.9749 63.7328 72.8266 63.7328H63.3964C63.5379 64.3606 63.6125 65.0136 63.6125 65.6841C63.6125 67.1483 62.4256 68.3353 60.9614 68.3353H36.3943C34.9301 68.3353 33.7432 67.1483 33.7432 65.6841C33.7432 60.8035 37.6996 56.847 42.5802 56.847H48.6778ZM58.4106 56.7029C57.7772 56.7029 57.1715 56.8218 56.6148 57.0387C59.2841 57.6037 61.5085 59.3738 62.6921 61.7528H72.8266C72.8814 61.7528 72.9258 61.7084 72.9258 61.6536C72.9258 58.9194 70.7094 56.7029 67.9752 56.7029H58.4106ZM68.5379 46.4466C68.5379 49.4323 66.1175 51.8526 63.1319 51.8526C60.1463 51.8526 57.726 49.4323 57.726 46.4466C57.726 43.461 60.1463 41.0406 63.1319 41.0406C66.1175 41.0406 68.5379 43.461 68.5379 46.4466ZM55.4952 46.292C55.4952 50.0989 52.4091 53.1849 48.6022 53.1849C44.7954 53.1849 41.7093 50.0989 41.7093 46.292C41.7093 42.4851 44.7954 39.399 48.6022 39.399C52.4091 39.399 55.4952 42.4851 55.4952 46.292ZM11.88 76.8577C11.88 78.2982 13.0478 79.466 14.4883 79.466H19.8539C21.2944 79.466 22.4621 78.2982 22.4621 76.8577C22.4621 75.4172 21.2944 74.2495 19.8539 74.2495H14.4883C13.0478 74.2495 11.88 75.4172 11.88 76.8577ZM14.4883 77.486C14.1413 77.486 13.86 77.2047 13.86 76.8577C13.86 76.5108 14.1413 76.2295 14.4883 76.2295L19.8539 76.2295C20.2008 76.2295 20.4821 76.5108 20.4821 76.8577C20.4821 77.2047 20.2008 77.486 19.8539 77.486H14.4883ZM16.335 15.3441C16.335 13.9772 17.4431 12.8691 18.81 12.8691C20.1769 12.8691 21.285 13.9772 21.285 15.3441V21.2841C21.285 22.651 20.1769 23.7591 18.81 23.7591C17.4431 23.7591 16.335 22.651 16.335 21.2841V15.3441ZM18.81 14.8491C18.5366 14.8491 18.315 15.0708 18.315 15.3441V21.2841C18.315 21.5575 18.5366 21.7791 18.81 21.7791C19.0834 21.7791 19.305 21.5575 19.305 21.2841V15.3441C19.305 15.0708 19.0834 14.8491 18.81 14.8491ZM18.81 30.6891C17.4431 30.6891 16.335 29.581 16.335 28.2141C16.335 26.8472 17.4431 25.7391 18.81 25.7391C20.1769 25.7391 21.285 26.8472 21.285 28.2141C21.285 29.581 20.1769 30.6891 18.81 30.6891ZM18.315 28.2141C18.315 28.4875 18.5366 28.7091 18.81 28.7091C19.0834 28.7091 19.305 28.4875 19.305 28.2141C19.305 27.9408 19.0834 27.7191 18.81 27.7191C18.5366 27.7191 18.315 27.9408 18.315 28.2141Z" fill="#B1B1B1"/>
</svg>
