<svg width="22" height="22" viewBox="0 0 22 22" fill="none" xmlns="http://www.w3.org/2000/svg">
<path d="M10.9999 16.4004V10.4004M18.6799 16.7604C17.6195 16.7604 16.7599 17.62 16.7599 18.6804C16.7599 19.7408 17.6195 20.6004 18.6799 20.6004C19.7403 20.6004 20.5999 19.7408 20.5999 18.6804C20.5999 17.62 19.7403 16.7604 18.6799 16.7604ZM18.6799 16.7604L18.6799 11.2404C18.6799 10.7102 18.2501 10.2804 17.7199 10.2804H4.2799C3.74971 10.2804 3.3199 10.7102 3.3199 11.2404L3.3199 16.7604M3.3199 16.7604C2.25951 16.7604 1.3999 17.62 1.3999 18.6804C1.3999 19.7408 2.25951 20.6004 3.3199 20.6004C4.38029 20.6004 5.2399 19.7408 5.2399 18.6804C5.2399 17.62 4.38029 16.7604 3.3199 16.7604ZM10.9999 20.6004C9.93951 20.6004 9.0799 19.7408 9.0799 18.6804C9.0799 17.62 9.93951 16.7604 10.9999 16.7604C12.0603 16.7604 12.9199 17.62 12.9199 18.6804C12.9199 19.7408 12.0603 20.6004 10.9999 20.6004ZM4.9999 6.20039H16.9999C17.6626 6.20039 18.1999 5.66313 18.1999 5.00039V2.60039C18.1999 1.93765 17.6626 1.40039 16.9999 1.40039H4.9999C4.33716 1.40039 3.7999 1.93765 3.7999 2.60039V5.00039C3.7999 5.66313 4.33716 6.20039 4.9999 6.20039Z" stroke="#007143" stroke-width="1.5" stroke-linecap="round"/>
</svg>
