<svg width="24" height="24" viewBox="0 0 24 24" fill="none" xmlns="http://www.w3.org/2000/svg">
<g id="data-04">
<path id="Icon" d="M11.9999 17.4004V11.4004M19.6799 17.7604C18.6195 17.7604 17.7599 18.62 17.7599 19.6804C17.7599 20.7408 18.6195 21.6004 19.6799 21.6004C20.7403 21.6004 21.5999 20.7408 21.5999 19.6804C21.5999 18.62 20.7403 17.7604 19.6799 17.7604ZM19.6799 17.7604L19.6799 12.2404C19.6799 11.7102 19.2501 11.2804 18.7199 11.2804H5.2799C4.74971 11.2804 4.3199 11.7102 4.3199 12.2404L4.3199 17.7604M4.3199 17.7604C3.25951 17.7604 2.3999 18.62 2.3999 19.6804C2.3999 20.7408 3.25951 21.6004 4.3199 21.6004C5.38029 21.6004 6.2399 20.7408 6.2399 19.6804C6.2399 18.62 5.38029 17.7604 4.3199 17.7604ZM11.9999 21.6004C10.9395 21.6004 10.0799 20.7408 10.0799 19.6804C10.0799 18.62 10.9395 17.7604 11.9999 17.7604C13.0603 17.7604 13.9199 18.62 13.9199 19.6804C13.9199 20.7408 13.0603 21.6004 11.9999 21.6004ZM5.9999 7.20039H17.9999C18.6626 7.20039 19.1999 6.66313 19.1999 6.00039V3.60039C19.1999 2.93765 18.6626 2.40039 17.9999 2.40039H5.9999C5.33716 2.40039 4.7999 2.93765 4.7999 3.60039V6.00039C4.7999 6.66313 5.33716 7.20039 5.9999 7.20039Z" stroke="#7D7D7D" stroke-width="1.5" stroke-linecap="round"/>
</g>
</svg>
