<svg width="20" height="20" viewBox="0 0 20 20" fill="none" xmlns="http://www.w3.org/2000/svg">
<path d="M16.8404 3.43013C18.6404 5.23013 19.7547 7.58728 19.7547 10.1587C19.7547 15.3873 15.3833 19.673 10.1118 19.673C8.52612 19.673 6.98326 19.2444 5.56897 18.5158L0.554688 19.8016L1.88326 14.873C1.06897 13.4587 0.597545 11.8301 0.597545 10.1158C0.597545 4.88728 4.88326 0.601562 10.1118 0.601562C12.6833 0.601562 15.0833 1.63013 16.8404 3.43013ZM10.1118 18.0444C14.4833 18.0444 18.1261 14.4873 18.1261 10.1587C18.1261 8.01585 17.2261 6.04442 15.7261 4.54442C14.2261 3.04442 12.2547 2.23013 10.1547 2.23013C5.78326 2.23013 2.22612 5.78728 2.22612 10.1158C2.22612 11.6158 2.65469 13.073 3.42612 14.3587L3.6404 14.6587L2.82612 17.573L5.82612 16.7587L6.08326 16.9301C7.32612 17.6587 8.69755 18.0444 10.1118 18.0444ZM14.4833 12.1301C14.6975 12.2587 14.869 12.3016 14.9118 12.4301C14.9975 12.5158 14.9975 12.9873 14.7833 13.5444C14.569 14.1016 13.6261 14.6158 13.1975 14.6587C12.4261 14.7873 11.8261 14.7444 10.3261 14.0587C7.92612 13.0301 6.38326 10.6301 6.25469 10.5016C6.12612 10.3301 5.31183 9.21585 5.31183 8.01585C5.31183 6.85871 5.91183 6.30156 6.12612 6.04442C6.3404 5.78728 6.59755 5.74442 6.76897 5.74442C6.89755 5.74442 7.06897 5.74442 7.19755 5.74442C7.36897 5.74442 7.5404 5.70156 7.75469 6.17299C7.92612 6.64442 8.4404 7.80156 8.48326 7.93013C8.52612 8.05871 8.56897 8.18728 8.48326 8.35871C8.05469 9.25871 7.5404 9.21585 7.79755 9.64442C8.7404 11.2301 9.6404 11.7873 11.0547 12.473C11.269 12.6016 11.3975 12.5587 11.569 12.4301C11.6975 12.2587 12.169 11.7016 12.2975 11.4873C12.469 11.2301 12.6404 11.273 12.8547 11.3587C13.069 11.4444 14.2261 12.0016 14.4833 12.1301Z" fill="white"/>
</svg>
